<?xml version="1.0" encoding="UTF-8"?><svg xmlns="http://www.w3.org/2000/svg" xmlns:xlink="http://www.w3.org/1999/xlink" viewBox="0 0 763.39 963.83"><defs><style>.cls-1{fill:url(#Unbenannter_Verlauf_31-5);}.cls-2{fill:url(#Unbenannter_Verlauf_31-6);}.cls-3{fill:url(#Unbenannter_Verlauf_31-7);}.cls-4{fill:url(#Unbenannter_Verlauf_31-8);}.cls-5{fill:url(#Unbenannter_Verlauf_31-4);}.cls-6{fill:url(#Unbenannter_Verlauf_31-2);}.cls-7{fill:url(#Unbenannter_Verlauf_31-3);}.cls-8{fill:url(#Unbenannter_Verlauf_42-2);}.cls-9{fill:url(#Unbenannter_Verlauf_42-3);}.cls-10{fill:url(#Unbenannter_Verlauf_42-6);}.cls-11{fill:url(#Unbenannter_Verlauf_42-5);}.cls-12{fill:url(#Unbenannter_Verlauf_42-4);}.cls-13{fill:url(#Unbenannter_Verlauf_42-7);}.cls-14{fill:#69895f;}.cls-15{fill:#65463d;}.cls-16{fill:#63cff1;}.cls-17{fill:#859875;}.cls-18{fill:#b5ee76;}.cls-19{fill:#a4e460;}.cls-20{fill:#4190aa;}.cls-21{fill:#3e4b33;}.cls-22{fill:#94cd56;}.cls-23{fill:#557257;}.cls-24{fill:#489eba;}.cls-25{fill:#51b0d0;}.cls-26{fill:url(#Unbenannter_Verlauf_31);}.cls-27{fill:url(#Unbenannter_Verlauf_42);}</style><radialGradient id="Unbenannter_Verlauf_31" cx="270.5" cy="890.24" fx="270.5" fy="890.24" r="19.77" gradientTransform="matrix(1, 0, 0, 1, 0, 0)" gradientUnits="userSpaceOnUse"><stop offset="0" stop-color="#006837"/><stop offset=".09" stop-color="#238243"/><stop offset=".31" stop-color="#71bb5e"/><stop offset=".47" stop-color="#a2e06f"/><stop offset=".55" stop-color="#b5ee76"/><stop offset=".59" stop-color="#b5ee76" stop-opacity=".93"/><stop offset=".66" stop-color="#b5ee76" stop-opacity=".76"/><stop offset=".75" stop-color="#b5ee76" stop-opacity=".49"/><stop offset=".87" stop-color="#b5ee76" stop-opacity=".11"/><stop offset=".91" stop-color="#b5ee76" stop-opacity="0"/></radialGradient><radialGradient id="Unbenannter_Verlauf_31-2" cx="254.02" cy="837.27" fx="254.02" fy="837.27" r="19.77" xlink:href="#Unbenannter_Verlauf_31"/><radialGradient id="Unbenannter_Verlauf_31-3" cx="239.9" cy="766.64" fx="239.9" fy="766.64" xlink:href="#Unbenannter_Verlauf_31"/><radialGradient id="Unbenannter_Verlauf_31-4" cx="232.84" cy="691.31" fx="232.84" fy="691.31" r="19.77" xlink:href="#Unbenannter_Verlauf_31"/><radialGradient id="Unbenannter_Verlauf_31-5" cx="235.19" cy="615.97" fx="235.19" fy="615.97" r="19.77" xlink:href="#Unbenannter_Verlauf_31"/><radialGradient id="Unbenannter_Verlauf_31-6" cx="255.7" cy="541.17" fx="255.7" fy="541.17" r="19.77" xlink:href="#Unbenannter_Verlauf_31"/><radialGradient id="Unbenannter_Verlauf_31-7" cx="296.86" cy="454.68" fx="296.86" fy="454.68" r="19.77" xlink:href="#Unbenannter_Verlauf_31"/><radialGradient id="Unbenannter_Verlauf_31-8" cx="336.87" cy="403.33" fx="336.87" fy="403.33" r="19.77" xlink:href="#Unbenannter_Verlauf_31"/><radialGradient id="Unbenannter_Verlauf_42" cx="509.91" cy="777.6" fx="509.91" fy="777.6" r="11.89" gradientTransform="matrix(1, 0, 0, 1, 0, 0)" gradientUnits="userSpaceOnUse"><stop offset="0" stop-color="#c0272d"/><stop offset=".32" stop-color="#de4727"/><stop offset=".55" stop-color="#f05a24"/><stop offset=".59" stop-color="#f05a24" stop-opacity=".94"/><stop offset=".66" stop-color="#f05a24" stop-opacity=".76"/><stop offset=".75" stop-color="#f05a24" stop-opacity=".49"/><stop offset=".87" stop-color="#f05a24" stop-opacity=".12"/><stop offset=".91" stop-color="#f05a24" stop-opacity="0"/></radialGradient><radialGradient id="Unbenannter_Verlauf_42-2" cx="513.75" cy="713.22" fx="513.75" fy="713.22" xlink:href="#Unbenannter_Verlauf_42"/><radialGradient id="Unbenannter_Verlauf_42-3" cx="509.24" cy="642.59" fx="509.24" fy="642.59" xlink:href="#Unbenannter_Verlauf_42"/><radialGradient id="Unbenannter_Verlauf_42-4" cx="478.59" cy="524.03" fx="478.59" fy="524.03" r="19.53" xlink:href="#Unbenannter_Verlauf_42"/><radialGradient id="Unbenannter_Verlauf_42-5" cx="498.6" cy="587.59" fx="498.6" fy="587.59" r="19.53" xlink:href="#Unbenannter_Verlauf_42"/><radialGradient id="Unbenannter_Verlauf_42-6" cx="451.51" cy="468.7" fx="451.51" fy="468.7" r="19.53" xlink:href="#Unbenannter_Verlauf_42"/><radialGradient id="Unbenannter_Verlauf_42-7" cx="416.2" cy="419.27" fx="416.2" fy="419.27" r="19.53" xlink:href="#Unbenannter_Verlauf_42"/></defs><g id="Ebene_21"><g><path class="cls-20" d="M522.53,585.16c-16.19,29.53,1.91,33.34-12.38,49.54-14.29,16.19-13.34,27.63-22.86,27.63s-8.57-19.05-13.34-37.15c-4.76-18.1-26.67,1.91-28.58-26.07-1.91-27.98,13.34-45.37,.95-59.66-12.38-14.29-18.1-4.76-29.53,.95-11.43,5.72-38.1,21.91-20.96,33.34,17.15,11.43,7.62,26.67,4.76,40.01s11.43,10.48,11.43,42.87-34.29,24.77-43.82,37.15c-9.53,12.38,0,24.77-8.57,39.06-8.57,14.29-27.63,7.62-25.24-5.72,2.38-13.34-9.05-13.34-22.39-28.58-13.34-15.24-9.53-15.24-8.57-34.29,.95-19.05-18.1-15.24-24.77-31.44-6.67-16.19-7.62-33.34,0-41.91,7.62-8.57,3.81-10.48,21.91-16.19,18.1-5.72,41.91-3.81,50.49-16.29,8.57-12.48-15.24-18-16.67-34.19-1.43-16.19,16.67-26.67,26.2-25.72,9.53,.95,30.48,4.76,35.25-9.53,4.76-14.29,.95-34.29,7.62-40.96,6.67-6.67,20.96,9.53,28.58-3.81,4.45-7.79,18-16.23,28.5-21.9-35.56-25.41-79.1-40.37-126.14-40.37-33.95,0-66.07,7.79-94.69,21.68,1.25,13.04-.52,28.8-13.43,37.73-24.77,17.15-26.67,8.57-31.44,21.91-4.76,13.34-14.26,9.59-33.34,21.91-5.48,3.54-10.88,5.43-15.8,6.34-18.13,31.72-28.5,68.46-28.5,107.62,0,.04,0,.07,0,.11,2.15-1.2,4.5-2.39,7.14-3.57,34.29-15.24,20-23.81,44.77-22.86,24.77,.95,11.87,23.26,13.08,34.97,1.21,11.71,15.5-1.63,16.45,25.05,.95,26.67,3.81,32.46,21.91,40.05,18.1,7.58-8.57,25.68-19.05,34.26-10.48,8.57,32.39,33.34,20,46.68-6.7,7.22-17.66,10.53-26.31,12.05,37.69,31.5,86.23,50.47,139.19,50.47,119.95,0,217.19-97.24,217.19-217.19,0-15.53-1.64-30.68-4.74-45.29-6.21,9.6-16.31,16.75-24.31,31.35Zm-233.39-135.27s3.81-16.19,23.82-22.86c20-6.67,38.1-16.19,33.34,0-4.76,16.19,7.07,8.57,9.25,22.86,2.18,14.29-20,15.24-33.2,19.05-13.2,3.81-19.87,21.91-39.87,18.1-20-3.81,6.67-37.15,6.67-37.15Z"/><g><path class="cls-22" d="M432.03,444.17c-7.62,13.34-21.91-2.86-28.58,3.81-6.67,6.67-2.86,26.67-7.62,40.96-4.76,14.29-25.72,10.48-35.25,9.53-9.53-.95-27.63,9.53-26.2,25.72,1.43,16.19,25.24,21.71,16.67,34.19-8.57,12.48-32.39,10.58-50.49,16.29-18.1,5.72-14.29,7.62-21.91,16.19-7.62,8.57-6.67,25.72,0,41.91,6.67,16.19,25.72,12.38,24.77,31.44-.95,19.05-4.76,19.05,8.57,34.29,13.34,15.24,24.77,15.24,22.39,28.58-2.38,13.34,16.67,20,25.24,5.72,8.57-14.29-.95-26.67,8.57-39.06,9.53-12.38,43.82-4.76,43.82-37.15s-14.29-29.53-11.43-42.87,12.38-28.58-4.76-40.01c-17.15-11.43,9.53-27.63,20.96-33.34,11.43-5.72,17.15-15.24,29.53-.95,12.38,14.29-2.86,31.68-.95,59.66,1.91,27.98,23.82,7.97,28.58,26.07,4.76,18.1,3.81,37.15,13.34,37.15s8.57-11.43,22.86-27.63c14.29-16.19-3.81-20,12.38-49.54,8.01-14.6,18.1-21.75,24.31-31.35-11.45-53.97-42.93-100.53-86.31-131.54-10.5,5.67-24.05,14.11-28.5,21.9Z"/><path class="cls-22" d="M194.83,463.22c4.76-13.34,6.67-4.76,31.44-21.91,12.91-8.94,14.68-24.69,13.43-37.73-39.5,19.16-72.31,49.94-94,87.9,4.91-.91,10.31-2.8,15.8-6.34,19.08-12.32,28.58-8.57,33.34-21.91Z"/><path class="cls-22" d="M221.5,753.77c12.38-13.34-30.48-38.1-20-46.68,10.48-8.57,37.15-26.67,19.05-34.26-18.1-7.58-20.96-13.37-21.91-40.05-.95-26.67-15.24-13.34-16.45-25.05-1.21-11.71,11.69-34.02-13.08-34.97-24.77-.95-10.48,7.62-44.77,22.86-2.64,1.17-5,2.37-7.14,3.57,.03,66.94,30.36,126.79,78,166.61,8.65-1.52,19.61-4.83,26.31-12.05Z"/><path class="cls-22" d="M282.47,487.04c20,3.81,26.67-14.29,39.87-18.1,13.2-3.81,35.39-4.76,33.2-19.05-2.18-14.29-14.01-6.67-9.25-22.86,4.76-16.19-13.34-6.67-33.34,0-20,6.67-23.82,22.86-23.82,22.86,0,0-26.67,33.34-6.67,37.15Z"/></g><path class="cls-19" d="M163.08,474.34s9.53,.95,17.46-6.03c7.94-6.99,7.94-13.61,23.5-20.78,15.56-7.17,31.12-30.66,25.4-31.93-5.72-1.27-62.73,46.7-66.36,58.74Z"/><path class="cls-19" d="M298.82,472.04c-6.17,5.3-15.12-1.86-11.39-9.09,3-5.82,6.48-13,8.05-17.97,3.08-9.69,40.48-30.76,45.09-21.13,4.61,9.64-4.13,19.1,0,23.68,4.13,4.58,.95,9.98-19.37,11.89-10.16,.95-16.75,7.78-22.39,12.62Z"/><path class="cls-19" d="M198.32,754.72s17.15-3.49,3.49-18.1c-13.65-14.61-20.96-26.99-12.07-34.29,8.89-7.3,18.21-26.36,6.72-31.12-11.49-4.76-8.8-20-10.62-32.71s-15.53-11.67-13.91-30.76c1.61-19.09-.61-20.68-8.86-21.31-8.26-.64-35.25,14.61-37.15,30.48-1.91,15.88,21.91,26.99,22.86,40.64s2.22,28.9,13.65,52.71c11.43,23.82,35.88,44.45,35.88,44.45Z"/><path class="cls-19" d="M310.41,648.98s-26.36-15.16-23.82-41.24c2.54-26.08,14.29-23.14,36.83-26.2,22.55-3.05,32.07-16.07,41.91-16.71,9.84-.64,34.29,16.51,25.09,32.07-9.21,15.56,5.72,21.91,7.94,45.73,2.22,23.82-.64,25.09-25.09,36.2-24.45,11.11-12.38,31.44-20.64,38.74-8.26,7.3-18.1,3.49-20.64-16.19-2.54-19.69-18.73-20.73-18.73-32.12s-2.86-20.28-2.86-20.28Z"/><path class="cls-19" d="M369.47,553.72s-29.85-20.96-22.54-33.98c7.3-13.02,34.57,.64,52.05-13.97,17.49-14.61,.34-51.76,13.99-51.44,13.65,.32,15.24,6.98,27.31,0,12.07-6.98,7.53-22.76,23.5-19.69,15.97,3.08,76.84,87.96,69.86,107.01-6.99,19.05-22.23,32.71-22.23,47.31s3.81,15.24-8.89,30.17c-12.7,14.92-8.26,31.12-14.92,26.67-6.67-4.45,0-29.53-11.75-36.52-11.75-6.99-22.86-10.52-21.59-22.88,1.27-12.36,23.82-35.23,8.89-60.31-14.92-25.09-37.47-4.13-49.22-1.27-11.75,2.86-21.59,35.56-44.45,28.9Z"/><path class="cls-24" d="M445.37,418.11s-57.16-22.04-77.16-22.99c-20-.95-17.62,8.59-10.48,27.16,7.14,18.57,17.62,31.9,3.81,41.43-13.81,9.53-29.95,16.67-46.17,21.91-16.22,5.24-27.43,24.77-42.07,11.91-14.64-12.86-4.16-42.87,7.75-56.68,11.91-13.81,52.87-26.2,46.68-40.01-6.19-13.81-66.8-2.2-78.11,10.48-11.31,12.68,3.81,27.59-11.43,36.9-15.24,9.31-30.01,12.5-33.82,25.67-3.81,13.17-30.64,13.65-41.28,19.84-10.64,6.19-45.4,60.82-37.26,78.99,8.14,18.18,23.24-14.22,46.12-12.31,22.89,1.91,14.19,24.77,20.92,30.48,6.73,5.72,13.77,9.53,33.83,0,20.06-9.53,25.55-3.48,58.29-18.17,32.74-14.69,62.27-5.64,54.65-22.31-7.62-16.67-26.67-24.29-10.96-42.39,15.72-18.1,16.19-19.43,38.58-20.43,22.39-1,25.72-3.38,25.72-22.91s-5.24-35.08,13.81-30.4c19.05,4.68,38.58-16.15,38.58-16.15Z"/><path class="cls-24" d="M203.88,615.64s42.39-22.69,51.92-18.97c9.53,3.72-1.43,33.51,15.72,46.24,17.15,12.73,25.24,12.26,20,22.74-5.24,10.48-4.76,38.1,13.81,48.58,18.58,10.48,10,4.76,15.24,29.05,5.24,24.29,40.49,13.81,49.54-8.57,9.05-22.39,8.57-40.49,26.67-42.87,18.1-2.38,30.48,13.81,29.05,44.3-1.43,30.48,.16,55.4-66.68,65.73-66.84,10.33-124.42-24.77-132.47-28.58s26.73-15.24,5.29-36.2c-21.43-20.96-10.96-21.43,0-39.06,10.95-17.62,12.28-29.05-5.29-42.39-17.57-13.34-23.83-20.97-22.81-40.01Z"/><path class="cls-24" d="M407.68,570.61c-2.4-5.64-.84-12.19,3.88-16.1,6.29-5.2,14.79-11.14,19.99-10.32,9.05,1.43-7.62,47.15,6.19,66.68,13.81,19.53,24.29,6.45,28.1,32.04,3.81,25.59,16.19,31.13,31.91,27.65,15.72-3.48,25.24-32.54,26.67-49.21,1.43-16.67,18.1-41.56,18.1-41.56,0,0-1.91,80.14-31.91,124.92-30.01,44.77-70.49,67.43-73.83,61.1-3.33-6.33,3.56-58.72-10.84-71.58-14.4-12.86,3.7-34.04-3.45-51.31-7.14-17.27-10-13.54-7.62-35.17,1.49-13.54-3.36-28.12-7.2-37.13Z"/><path class="cls-25" d="M211.34,576.27c1.42,.06,23.5-20,58.74-21.27,35.25-1.27,47.05,.32,45.28-8.26-1.77-8.57,8.71-29.21-16.38-31.44-25.09-2.22-43.5-6.35-44.14-21.59-.64-15.24,19.69-30.17,6.99-37.79-12.7-7.62-34.61,.64-45.73,23.5-11.11,22.86-1.27,14.61-33.02,23.82-31.75,9.21-48.27,41.6-35.56,44.45,12.7,2.86,55.96-1.47,59.58,10.7,3.61,12.17-3.37,17.56,4.25,17.88Z"/><path class="cls-25" d="M362.17,402.26s63.51,8.52,62.24,15.85c-1.27,7.33-24.75,3.2-31.11,9.24-6.36,6.03,.31,32.07-9.85,31.44-10.16-.64-7.3-27.92-14.61-36.51s-13.07-20.93-6.67-20.02Z"/><path class="cls-25" d="M381.06,736.15s2.97-27.63,17.92-27.15c14.95,.48,15.06,43.34,0,60.97-15.06,17.62-90.43,28.58-123.95,9.53-33.52-19.05-17.33-36.2-24.95-49.54-7.62-13.34-4.29-20.96,6.19-36.2,10.48-15.24,19.53-7.14,22.39,10.96,2.86,18.1,25.72,13.15,30.96,36.11,5.24,22.96,26.42,32.76,46.07,25,19.66-7.76,25.37-29.67,25.37-29.67Z"/><path class="cls-25" d="M441.48,697.2c-1.1-8.72-2.57-17.37-4.29-25.98-2.18-10.88-3.84-25.84,2.8-28.3,10.62-3.94,12.52,31.31,31.57,39.88,19.05,8.57,42.86-19.4,46.68-9.53,3.82,9.88-51.92,88.12-63.35,72.87-7.4-9.87-11.46-33.5-13.41-48.95Z"/><g><path class="cls-16" d="M388.09,473.89c-2.87-11.52-4.35-32.08,5.13-40.85,1.71-1.3,3.83-1.92,5.97-1.88,6.06-.11,12.16,1,18.05,2.31,7.72,2.04,15.39-.87,22.68-3.61,1.83-.76,3.68-1.56,5.37-2.61l.15,.18c-3.03,2.74-6.78,4.54-10.5,6.16-3.82,1.57-7.77,3.05-12,3.09-4.2,.02-8.08-1.4-12.07-2.27-3.87-.86-7.78-1.54-11.76-1.98-9.2-.96-10.79,10.56-10.92,17.47-.44,7.91-.16,15.89,.13,23.94l-.23,.04h0Z"/><path class="cls-16" d="M267.33,453.21c-5.37,13.19-5.58,29.25,3.55,40.78,2.55,3.37,6.02,6.44,10.37,6.94,9.78,.87,18.23-9.31,25.65-14.7,2.31-1.82,4.69-3.6,7.27-5.14,2.57-1.54,5.39-2.81,8.44-3.46,11.43-2.27,23.13-3.73,33.02-10.21l.13,.19c-4.56,3.74-9.93,6.51-15.56,8.27-5.62,1.81-11.4,3-17.09,4.2-2.68,.57-5.24,1.74-7.72,3.13-10.42,5.57-21.67,19.48-34.23,18.44-9.78-1.46-17.83-13.48-19.09-22.76-.96-5.92-.3-12.02,1.49-17.69,.89-2.82,2.04-5.56,3.56-8.09l.21,.11h0Z"/><path class="cls-16" d="M252.42,474.4c-.02,6.68,.8,13.22,2.86,19.36,1,3.07,2.29,6.14,4.38,8.71,2.6,3.21,6.18,5.49,10.04,6.85,5.23,2.01,11.03,2.7,16.49,1.37,6.23-1.35,11.97-4.85,16.83-9.38l.19,.14c-3.81,5.68-9.74,10-16.45,11.67-13.82,3.36-27.68-6.42-33.3-18.68-2.54-6.33-2.93-13.51-1.27-20.09l.23,.04h0Z"/><path class="cls-16" d="M326.08,514.75c-1.32,8,1.54,16.1,6.15,22.57,7.06,8.72,15.61,19.41-.44,24.12-3.54,1.03-7.14,1.62-10.74,2.17-10.69,1.5-21.52,3.34-31.23,8.17-8.02,3.92-14.42,10.44-19.52,17.67-7.09,10.45-6.38,24.04-3.74,35.89,.85,3.48,1.76,7.02,3.29,10.26l-.2,.13c-6.62-12.07-9.7-29.76-4.18-42.76,1.47-3.45,3.76-6.48,6.18-9.32,4.75-5.62,10.58-10.57,17.36-13.55,6.71-3.05,13.97-4.34,21.16-5.58,6.23-.99,15.36-2.05,21.2-4.31,15.79-5.47,2.62-15.63-2.18-24.17-3.59-6.37-5.43-14.2-3.34-21.35l.22,.07h0Z"/><path class="cls-16" d="M282.52,564.93c-4.41,3.04-8.52,6.29-12.57,9.75-2.03,1.68-4.12,3.37-5.82,5.43-5.01,6.17-7.17,14.17-8.29,21.89-.66,5.18-.61,10.44-.25,15.84l-.23,.05c-1.84-5.11-2.49-10.68-2-16.18,.66-5.48,2.48-10.85,5.48-15.43,1.48-2.3,3.09-4.47,4.69-6.64,3.09-4.46,6.75-8.68,11.49-11.47,2.32-1.44,4.76-2.69,7.39-3.46l.1,.21h0Z"/><path class="cls-16" d="M192.91,601.24c4.07,1.9,7.18,5.36,9.85,8.9,3.5,4.78,5.68,10.71,5.16,16.69-.23,3.04-1.03,6.05-1.66,8.98-2.23,9.01,1.49,13.74,8.25,19.1,10.1,8.15,29.39,19.98,16.24,34.14l-.19-.14c3.9-5.86,4.25-11.77-.52-17.2-4.19-4.92-9.44-8.79-14.36-13.06-3.31-2.78-6.89-5.79-8.98-9.87-2.33-3.95-2.05-8.8-1.19-13.11,.75-4.24,1.24-8.61,.42-12.82-1.58-8.26-6.59-16.09-13.11-21.4l.09-.22h0Z"/><path class="cls-16" d="M312.01,709.83c8.34,.83,12.39,9.95,13.07,17.37,.51,3.77,.08,7.63,.54,11.39,1.37,13.64,11.39,17.73,23.85,15.81,5.4-1.05,11.5-1.89,15.37-6.14,3.76-4.25,5.19-9.88,6.3-15.34,1.42-7.48,1.96-15.07,3.24-22.62,.69-3.79,1.57-7.65,3.53-11.25,1.83-3.69,5.97-5.59,9.62-7.06,3.57-1.49,7.21-2.7,10.78-3.98,7.02-2.43,14.54-5.52,17.74-12.72l.22,.09c-1.23,3.64-3.8,6.85-6.99,9.09-6.37,4.39-13.95,6.36-20.83,9.59-3.24,1.57-6.64,2.78-8.35,6.23-7.52,14.52-2.44,43.86-19.35,51.98-15.1,5.27-35.04,7.38-37.18-13.44-.53-7.4,.72-15.36-3.12-22.08-1.8-3.21-4.75-5.93-8.45-6.68l.02-.23h0Z"/><path class="cls-16" d="M317.83,751.83c1.94,3.65,4.46,6.92,7.31,9.86,2.69,3.13,6.45,5.48,10.64,5.84,8.39,1.01,16.42-.64,24.76-1.83l.07,.22c-3.78,2.04-7.93,3.37-12.23,4-4.3,.48-8.79,.32-12.9-1.14-4.08-1.51-8.11-3.06-11.66-5.65-3.33-2.79-5.76-6.9-6.23-11.25l.23-.06h0Z"/><path class="cls-16" d="M440.09,569.02c-5.66,15.18-10.24,36.6,3.84,48.52,5.31,4.42,13.98,3.16,17.98,9.5,1.66,2.38,2.58,5.08,3.31,7.75,1.4,5.3,2.43,10.63,3.69,15.83,1.25,4.91,2.65,10.41,6.89,13.47,4.32,3.02,10.21,2.4,15.25,1.61l.06,.23c-23.8,7.76-24.14-13.89-28.03-30.6-3.53-16.47-13.65-9.83-22.6-20.05-7.99-8.51-9.39-20.16-6.61-31.15,1.28-5.35,3.25-10.51,6.01-15.22l.21,.11h0Z"/><path class="cls-16" d="M443.18,624.42c5.55,1.23,10.37,5.69,12.28,11.18,1.87,5.45,.41,11.23,1.58,16.69,1.08,5.2,3.27,10.28,6.65,14.4,3.32,4.06,7.72,7.45,13.17,8.53v.23c-5.8,.48-11.39-2.87-15.09-7.16-3.66-4.45-5.77-10.13-6-15.84-.14-2.73,.13-5.66,0-8.36-.48-5.39-2.9-10.34-6.37-14.39-1.78-1.96-3.9-3.67-6.29-5.05l.07-.22h0Z"/><path class="cls-16" d="M132.2,575.09c3.7-3.93,8.08-7.16,12.84-9.68,4.93-2.23,9.89-4.17,14.98-6.05,3.89-1.34,8.48-1.83,12.43-.08,3.71,1.71,7.23,3.85,10.24,6.66,1.96,1.88,3.88,4.06,4.63,6.73l-.22,.07c-1.4-2.2-3.5-3.85-5.58-5.37-2.12-1.5-4.35-2.83-6.66-4.05-2.22-1.17-4.35-2.53-6.91-2.9-2.5-.36-5.1-.18-7.63,.2-8.03,1.13-14.19,6.84-21.07,10.63-2.27,1.36-4.54,2.74-6.9,4.03l-.15-.18h0Z"/><path class="cls-16" d="M171.93,491.36c9.75-2.52,27.81-6.73,31.78-16.72,2.13-5.88,2.08-13.05,6.68-17.9,1.67-1.58,3.69-2.59,5.68-3.41,14.88-5.73,22.14-2.6,26.59-21.24l.23,.04c-.53,9.51-4.08,17.24-13.99,19.83-5.92,1.87-12.28,2.49-17.25,6.19-4.59,4.17-5.43,11.05-7.22,16.75-2.83,8.46-11.88,12.76-19.91,14.86-4.12,1.07-8.32,1.75-12.56,1.85l-.03-.23h0Z"/></g><path class="cls-18" d="M435.4,496.23c-12.9,.85-22.87-12.05-17.81-23.95,1.31-3.08,3.44-5.24,6.84-5.24,11.89,0,18.68,.96,31.89-14.2,13.21-15.16,53.82,41.83,57.63,68.97,3.81,27.15-8.57,21.24-11.91,43.01-3.33,21.77,5.72,21.27-4.76,26.52-10.48,5.25-25.46,1.96-22.73-16.16,2.73-18.12,13.94-45.65,0-60.47-13.94-14.81-22.79-21.45-34.56-19.09-1.53,.31-3.07,.5-4.59,.6Z"/><path class="cls-18" d="M297.39,457.51s16.19-22.7,25.4-23.26,4.13,5.81,6.99,10.72c2.86,4.91-36.52,26.82-32.39,12.53Z"/><path class="cls-18" d="M359.41,527.68s1.18-3.2,21.5-5.73c20.32-2.53,24.45-11.64,27.31-7.24s-5.92,12.34-16.3,19.96c-10.38,7.62-29.97,6.78-32.51-6.99Z"/><path class="cls-18" d="M305.02,605.48s25.4-14.29,42.23-16.51c16.83-2.22,23.18,13.34,19.69,23.5s18.42,21.82,12.7,34.09c-5.72,12.27-23.18,17.99-27.31,32.28-4.13,14.29-12.07,15.56-17.94,8.57-5.87-6.99,2.15-15.88-6.31-35.88-8.46-20-36.72-30.48-23.07-46.04Z"/><path class="cls-18" d="M145.33,634.07c-3.71-6.92-5.09-14.93-3.4-22.59,1.39-6.28,4.64-11.76,11.93-10.13,15.56,3.49,3.9,22.55,12.59,29.53,8.69,6.99,6.73,15.88,5.49,26.04-1.24,10.16,18.76,10.16,15.27,23.5-3.49,13.34-8.89,17.78-7.94,27.94,.95,10.16-13.02,.95-16.83-26.36-2.62-18.78-11.69-37.85-17.11-47.94Z"/></g></g><g id="Ebene_4"><g><path class="cls-15" d="M336.36,393.75c6.17,6,17.34,3.4,20.55,2.94,31.04-4.48,100.92,77.79,135.03,190.81,29.55,97.9,22.65,187.06,10.76,248.54,4.83-22.31,10.22-53.09,12.72-90.02,6.31-93.15-10.02-162.19-13.7-177.11-12.79-51.85-24.61-99.82-64.58-144.82-32.32-36.39-84.33-72.29-99.81-60.67-7.39,5.55-8.22,23.29-.98,30.33Z"/><path class="cls-15" d="M339.3,372.22c-10.33-14.84-126.11,16.26-184.94,102.74-9.15,13.45-34.38,51.76-37.18,104.7-3.62,68.36,33.36,100.73,85.13,240.71,9.71,26.25,16.92,48.12,21.53,62.62-7.19-34.63-15.76-63.97-23.48-87.09-6.3-18.84-14.64-43.53-29.36-74.37-14.97-31.37-20.08-34.59-28.38-53.82-1.7-3.94-20.74-49.19-16.63-95.89,8.76-99.54,120.62-182.55,170.26-176.13,5.7,.74,27.69,4.87,38.16-6.85,4.05-4.53,7.58-12.78,4.89-16.63Z"/><path class="cls-15" d="M329.51,949.54c-3.67-7.24-10.19-17.75-21.53-26.42-10.14-7.75-19.38-10.41-22.79-11.69-27.68-10.46-38.24-69.76-45.71-118.45-12.11-78.99-18.17-118.48-16.63-143.84,1.05-17.39,5.39-70.46,30.33-132.1,13.01-32.16,12.43-19.2,42.08-80.24,0,0,5.28-10.87,42.08-58.71,3.14-4.08,9.27-11.83,17.61-11.74,6.84,.08,14.08,5.43,15.66,11.74,2.71,10.89-11.82,23.13-16.63,27.4-41.34,36.61-85.01,121.27-100.79,181.02-6.8,25.77-8.18,46.02-9.79,69.47-.73,10.76-3.48,56.28,6.85,121.34,8.64,54.41,18.23,114.8,45.01,130.14,3.21,1.84,15.96,8.36,25.44,22.51,5.11,7.63,7.56,14.93,8.81,19.57Z"/><path class="cls-15" d="M573.16,755.79s1.49-33.08-4.89-79.26c-7.63-55.24-21.85-95.72-25.44-105.68-25.28-70.1-41.14-114.09-82.19-139.93-49.92-31.42-111.5-19.91-114.49-41.1-.83-5.92,3.17-12.57,7.83-15.66,9.83-6.51,24.52,1.57,46.97,11.74,35.63,16.15,43.12,15.96,55.78,22.51,66.21,34.25,98.35,162.02,101.77,176.13,22.56,93.13,14.64,171.24,14.68,171.24Z"/><path class="cls-15" d="M319.6,394.17c-2.19-5.04-4.58-11.87-5.94-20.2-1.51-9.27-1.22-17.25-.56-23.07-4.42-6.9-11.44-16.84-21.57-27.38-13.73-14.28-17.7-13.17-38.64-30.57-20.4-16.95-23.97-23.99-47.08-41.64-6.26-4.78-11.54-8.5-15-10.88-1.66-.3-4.13-.65-7.13-.75-7.33-.24-11.71,1.25-17.25,2.06-5.05,.74-9.12,.5-17.25,0-2.78-.17-11.23-.77-28.32-4.69-4.91-1.12-17.28-4.95-41.82-12.57-8.33-2.58-13.84-4.35-19.69-9.19-6.88-5.68-10.95-12.88-10.88-12.94,.05-.04,2.07,3.67,6.38,7.31,1.85,1.57,4.06,3.07,17.07,8.44,6.76,2.79,8.33,3.28,8.63,2.81,.52-.8-3.21-3.56-7.88-8.63-6.21-6.75-10.08-13.24-9.75-13.5,.47-.37,8.01,13.32,22.51,22.32,10.78,6.7,20.95,8.02,32.26,9.38,11.34,1.36,29.78,2.13,52.51-3.56-14.54-14.62-20.04-24.99-22.32-31.88-.59-1.78-1.91-6.18-5.71-10.35-4.66-5.11-10.66-7.24-14.89-8.24,11.87-5.88,15.92-5.51,17.34-3.95,1.47,1.61-.28,4.04,1.61,7.5,1.82,3.34,4.52,3.02,7.5,6.43,2.54,2.91,2.33,5.14,3.75,8.57,2.23,5.41,6.01,7.76,12.07,12.56,12.35,9.79,9.81,10.37,18.48,16.75,10.27,7.55,11.62,5.26,23.43,13.13,7.12,4.75,5.53,4.84,21.01,17.02,9.32,7.33,16.43,12.43,19.31,14.49,7.94,5.64,14.05,9.59,16.92,11.45,13.11,8.49,35.71,23.27,66.35,43.31,1.25,.79,7.13,4.31,14.19,2.53,7.29-1.84,12.86-8.61,13.83-17,6.08-2.11,15.81-5.73,27.38-11.16,23.56-11.07,30.16-18.13,49.82-26.32,17.79-7.41,32.53-10.02,36.57-10.69,25.63-4.24,29.6,2.11,59.08,.94,20.83-.83,36.58-5.37,68.08-14.44,10.61-3.06,23.92-7.3,34.13-17.07,5.26-5.03,5.72-7.72,12.68-15.14,0,0,5.37-5.79,6.83-11.68,.06-.24,.1-.45,.13-.64,.88-5.03-1.6-4.7-3.21-15.53,0,0-1.56-10.49-.23-20.24,0-.03,.23-1.72,.23-1.72,0,0,.23,.06,3.45,.95-1.26,3.87-2.65,9.91-1.86,17.15,.49,4.53,2.14,12.26,4.52,12.36,1.72,.07,2.7-3.91,7.44-14.09,1.91-4.1,3.58-7.38,4.65-9.44l3.06,.8c-5.72,12.8-11.43,25.61-17.15,38.41,4.92-3.48,10.58-7.11,17.01-10.63,6.32-3.46,12.32-6.25,17.81-8.51,.88-1.37,2.31-3.98,2.79-7.58,.43-3.26-.1-5.92-.53-7.44,1.06-.22,2.13-.44,3.19-.66,.55,.99,1.82,3.57,1.59,7.04-.22,3.38-1.72,5.72-2.39,6.65,4.85-.17,7.5-1.72,9.04-3.19,1.97-1.88,2.54-4.02,5.05-4.92,1.87-.67,4.44-.51,4.78,.4,.71,1.88-8.21,6.87-19.8,13.29-15.25,8.45-15.05,7.25-21.67,11.56-6.71,4.38-14.43,9.25-21.53,17.94-5.32,6.51-3.84,7.17-9.32,13.68-2.02,2.4-8.63,9.89-19.51,16.13-8.04,4.61-14.97,6.55-19.13,7.69-41.54,11.35-62.31,17.03-78.02,16.88-18.16-.17-20.97-3.57-38.07-1.69-14.73,1.62-25.6,5.64-33.95,8.63-19.84,7.11-33.12,15.8-48.01,25.69-12.66,8.41-28.97,20.42-46.53,36.87-.09,7.04-.18,14.09-.27,21.13-4.45,6.19-15.84,20.08-33.89,22.99-2.68,.43-5.26,.58-7.71,.53Z"/><path class="cls-15" d="M69.59,195.09c.46-.07-.22,7.64,4.77,13.25,6.69,7.52,18.84,9.67,21.19,6.36,2.43-3.42-5.12-13.37-5.83-14.31-4.42-5.82-8.7-7.98-7.95-10.6,.52-1.82,3.28-3.2,5.3-2.65,2.94,.8,3.3,5.4,5.83,12.19,.69,1.85,3.25,8.52,6.62,12.98,3.19,4.22,7.31,6.71,16.43,10.33,18.5,7.36,31.66,9.1,31.53,10.07-.11,.85-10.45,1.08-22.52-1.32-10.42-2.08-10.17-3.74-31.53-11.39-13.53-4.85-18.49-5.92-21.72-11.39-3.6-6.09-2.58-13.44-2.12-13.51Z"/><path class="cls-15" d="M106.41,184.5c.21-.33,2.09,.49,3.97,1.32,12.26,5.48,14.81,7.73,19.34,9.54,11.94,4.76,18.1-1.37,26.23,5.03,.76,.6,5.03,4.06,4.24,5.83-1.55,3.46-22.15-.35-38.95-10.33-7.21-4.29-15.3-10.65-14.84-11.39Z"/><path class="cls-15" d="M597.84,139.57c.24,0,.42,.2,.59,.4,2.12,2.46-1.31,7.82-2.37,12.45-1.71,7.43,2.35,14.24,5.54,19.57,5.93,9.95,16.08,17.05,18.19,15.42,1.29-1-1.8-4.27-1.58-11.27,.2-6.26,2.78-6.93,3.16-13.84,.32-5.84-1.25-10.31-.2-10.67,.74-.25,2.05,1.78,2.17,1.98,3.9,6.14-2.13,12.11-.59,21.75,.88,5.54,2.88,3.54,6.52,14.04,1.8,5.17,2.68,9.59,6.52,11.47,.42,.21,2.08,.99,3.95,.79,6.57-.71,13.25-13.28,11.86-24.12-1.58-12.35-13.32-19.88-12.65-20.56,.53-.54,7.39,3.36,11.86,10.67,4.99,8.16,5.7,18.44,2.57,26.69-2.51,6.62-5.4,6.4-12.06,14.83-12.63,15.99-8.83,25.15-20.36,35.19-7.64,6.65-17.41,9.69-18.98,7.71-1.55-1.95,5.16-11.38,18.58-30.25,2.79-3.93,6.27-8.74,6.72-15.62,.12-1.87,.53-8.12-3.36-12.65-3.62-4.22-7.57-2.98-13.24-5.73-11.71-5.68-15.09-20.78-15.62-23.13-2.69-12.04,.84-25.06,2.77-25.11Z"/><path class="cls-15" d="M340.39,322.55c-2.31-.09-2.49-7.83-7.21-28.12-5.21-22.4-9.94-42.7-21.64-62.26-4.32-7.21-10.46-17.49-21.41-26.11-12.21-9.62-18.22-7.59-33.51-18.36-5.53-3.9-24.19-17.05-22.34-25.82,1.3-6.17,12.69-10.01,17.22-5.45,3.19,3.21,.58,8.19,3.96,15.78,2.99,6.72,8.1,9.74,13.5,12.91,4.68,2.75,13.29,7.83,16.99,3.73,.83-.93,1.58-2.5,1.4-12.62-.27-15.39-2.12-19.16,0-22.09,3.38-4.68,13.63-2.77,15.59,2.58,1.18,3.23-1.44,5.54-3.49,14.06-1.22,5.07-3.41,14.18-.7,21.23,2.55,6.65,6.86,4.72,14.66,12.91,8.71,9.15,10.05,18.59,13.5,17.79,1.58-.37,2.99-5.03,5.82-14.35,2-6.6,2.24-8.77,1.63-10.9-.93-3.27-3.08-3.81-6.05-6.6-3.68-3.45-6.33-11.67-11.63-28.12-.81-2.52-1.88-5.95-.7-7.46,.83-1.06,2.55-.9,3.72-.29,1.78,.93,2.59,3.02,4.42,8.89,2.6,8.33,2.79,9.95,3.96,10.33,.43,.14,1.45,.26,6.75-6.03,3.1-3.68,4.64-5.51,5.12-6.6,3.37-7.72-1.81-16.88,.23-18.36,1.11-.8,3.77,1.06,4.89,3.73,1.92,4.59-1.96,8.64-.47,12.34,1.82,4.5,10.66,6.09,14.89,1.43,3.23-3.56,3.63-10.62,3.26-14.63-.3-3.18-1.3-6.74,0-11.19,.35-1.2,.77-2.63,1.16-2.58,1.73,.21,4.7,29.06-3.96,35.29-4.27,3.08-7.76-1.94-14.89,1.72-5.45,2.8-9.77,9-8.84,12.05,.48,1.59,1.96,.89,5.82,4.3,1.67,1.48,3.24,2.9,4.42,5.45,.79,1.71,.63,2.25,1.16,2.58,1.88,1.18,4.55-5.21,10.24-8.61,5.54-3.31,8.02-.24,10.94-3.44,2.88-3.17,1.28-7.07,2.79-17.22,1.33-8.9,4.85-21.24,9.07-21.52,1.08-.07,2.28,.64,2.79,1.72,1.03,2.17-.84,5.52-2.33,8.61-3.05,6.32-7.26,17.26-5.58,19.22,1.05,1.23,5.18-.13,7.45-3.73,4.53-7.19-2.5-16.83,2.09-27.83,1.05-2.52,3.3-6.51,4.89-6.03,3.07,.94,2.93,18.5,0,33.28-1.2,6.07-1.8,9.1-3.26,12.34-8.1,18.03-25.76,11.24-37,27.83-9.07,13.38-7.58,32.56-7.21,37.3,.85,11,3.71,12.64,5.82,23.81,4.86,25.79-3.53,53.26-7.91,53.08Z"/><path class="cls-15" d="M176.89,165.09h0s-.32,.31-.56,.72c-1.69,2.83-.85,7.98-.85,7.98,.87,5.33,2.55,7.48,1.88,8.08-.45,.41-2.54-1.05-6.68-3.99-5.64-4-5.89-4.19-6.4-4.61-4.67-3.79-6.57-6.42-6.87-6.14-.39,.35,2.03,5.24,6.21,9.31,3.25,3.16,5.55,3.87,9.79,6.24,8.52,4.78,16.09,11.4,15.55,12.49-.39,.8-5.14-1.2-8.87-2.77-9.64-4.06-14.46-6.09-16.28-10.03-1.45-3.14-3.23-6.09-4.71-9.21-.12-.26-.56-1.2-1.51-1.74-1-.58-2.46-.65-2.73-.1-.64,1.29,5.52,5.38,4.91,6.63-.33,.68-2.65,.46-4.53-.59-3.12-1.74-3.3-4.74-6.31-5.63-.14-.04-2.13-.62-2.45,0-.87,1.7,11.25,11.75,23.72,19.34,6.34,3.86,7.56,3.91,19.29,10.8,10.58,6.21,8.87,5.75,11.96,7.21,6.38,3.02,9.76,3.14,30.53,7.11,7.39,1.41,11.11,2.13,12,2.55,9.64,4.61,10.16,14.57,19.31,26.67,11.12,14.69,14.21,16.21,26.13,31.8,9.39,12.29,15.96,22.49,17.51,24.93,4.15,6.54,8.18,12.91,12.75,21.94,8.22,16.25,8.12,21.29,13.09,23.13,8.61,3.2,19.61-7.95,21.6-9.97,2.45-2.49,6.53-6.17,8.51-12.46,1.55-4.92,1.14-9.07,.98-11.39-.39-5.54,1.81-18.41,6.22-44.13,2.16-12.61,3.24-18.92,3.77-20.02,4.87-10.13,13.65-10.82,40.17-24.21,20.37-10.28,34.48-17.4,54.69-21.58,12.27-2.53,15.57-1.66,27.1-5.26,2.95-.92,16.94-5.41,34.36-16.84,26.78-17.57,43.72-39.74,43.07-40.52-.45-.54-9.42,9.24-27.88,22.18-17.21,12.07-26.47,15.52-30.32,16.83-4.09,1.4-9.43,2.54-20.1,4.82-5.57,1.19-14.41,2.97-14.85,1.48-.31-1.05,4.07-1.95,6.34-6.79,1.23-2.64,.89-4.42,2.72-6.5,1.53-1.74,3.36-2.29,4.17-2.56,2.34-.78,6.1-3.5,13.62-8.94,10.31-7.46,16.74-17.59,16.45-17.89-.23-.24-4.57,5.74-12.78,11.08-7.57,4.91-16.97,8.34-18.68,5.76-1.62-2.44,5.04-8.22,2.9-13.16-1.07-2.47-4.09-4.12-5.96-3.33-2.33,.98-2.65,5.65-2.81,7.19-1.48,14.96-16.52,31.96-18.56,34.26-6.42,7.26-10.59,6.28-37.04,15.04-33.19,10.99-43.34,18.06-45.98,14.21-4.46-6.51,19.83-33.61,22.75-36.84,29.49-32.62,59.23-45.36,58.56-46.84-.66-1.45-31.38,6.43-60.5,32.63-7.8,7.02-33.82,31.01-48.4,72.62-13.85,39.55-8.13,68.6-18.39,71.04-4.45,1.06-5.72-4.36-32.85-34.01-11.57-12.64-18.78-19.81-27.72-33.44-6.19-9.43-4.62-8.87-8.96-14.61-11.18-14.77-19.43-15.65-28.95-30.13-4.43-6.75-7.56-13.76-7.56-13.76-3.02-6.76-2.52-7.78-4.39-11.32-6.16-11.64-19.53-15.78-19.95-15.04-.2,.36,2.68,1.74,5.58,5.96,3.17,4.6,5.67,11.56,3.73,13.48-1.57,1.56-5.9-.37-8.75-2.66-5.58-4.48-5.87-11.93-7.62-11.67-1.09,.16-2.14,3.25-1.41,5.73,.89,3.01,4,3.79,8,6.14,2.71,1.59,5.1,3.82,9.88,8.29,6.57,6.15,15.82,17.3,13.69,20.81-.72,1.19-2.53,1.14-5.22,.95-11.3-.83-16.95-1.25-23.06-3.84-7.63-3.24-20.55-8.75-23.72-20.06-1.08-3.87-2.29-12.91-2.35-12.89Z"/></g></g><g id="Ebene_18"><g><g><polygon class="cls-23" points="484.63 46.24 561.36 53.08 543.49 70.94 472.54 63.59 484.63 46.24"/><polygon class="cls-17" points="552.95 47.3 561.36 53.08 484.63 46.24 489.36 43.09 552.95 47.3"/><polygon class="cls-21" points="585.54 78.3 548.75 83.03 543.49 70.94 561.36 53.08 585.54 78.3"/></g><g><polygon class="cls-21" points="81.69 142.37 101.11 123.88 130.31 154.17 122.92 186.63 81.69 142.37"/><polygon class="cls-14" points="157.14 96.91 101.11 123.88 130.31 154.17 163.43 111.86 157.14 96.91"/><polygon class="cls-23" points="234.88 161.22 122.92 186.63 130.31 154.17 234.06 138.34 234.88 161.22"/><polygon class="cls-17" points="249.56 119.5 157.14 96.91 163.43 111.86 214.4 141.58 234.06 138.34 249.56 119.5"/><polygon class="cls-21" points="234.88 161.22 248.53 148.68 249.56 119.5 234.06 138.34 234.88 161.22"/><polygon class="cls-21" points="163.43 111.86 130.31 154.17 214.4 141.58 163.43 111.86"/></g><polygon class="cls-23" points="301.59 86.81 331.08 66.9 432.26 48.63 472.26 61.34 445.36 94.7 380.67 114.81 301.59 86.81"/><g><polygon class="cls-21" points="334.25 106.05 405.95 89.72 391.63 108.61 334.25 106.05"/><g><polygon class="cls-14" points="340.04 137.59 319.96 157.35 313.45 114.62 334.25 106.05 340.04 137.59"/><polygon class="cls-23" points="415.68 130.98 340.04 137.59 319.96 157.35 424 146.91 415.68 130.98"/><polygon class="cls-21" points="450.02 101.67 415.68 130.98 424 146.91 446.7 128.22 455.38 101.35 450.02 101.67"/><polygon class="cls-14" points="405.95 89.72 450.02 101.67 415.68 130.98 391.63 108.61 405.95 89.72"/><polygon class="cls-17" points="391.63 108.61 415.68 130.98 340.04 137.59 334.25 106.05 391.63 108.61"/></g></g><g><polygon class="cls-14" points="330.11 45.32 347.24 69.86 416.85 52.75 422.38 25.98 330.11 45.32"/><polygon class="cls-21" points="494.75 40.11 470.99 66.14 416.85 52.75 422.38 25.98 494.75 40.11"/><polygon class="cls-17" points="422.38 16.31 494.75 40.11 422.38 25.98 330.11 45.32 422.38 16.31"/></g><g><polygon class="cls-14" points="402.74 62.61 446.57 80.78 456.19 66.35 423.58 52.99 402.74 62.61"/><polygon class="cls-21" points="532.09 61 550.79 77.04 446.57 80.78 456.19 66.35 532.09 61"/><polygon class="cls-17" points="423.58 52.99 488.79 54.59 532.09 61 456.19 66.35 423.58 52.99"/></g><g><polygon class="cls-14" points="177.27 76.59 219.12 118.54 238.96 92.08 204.63 60.46 177.27 76.59"/><polygon class="cls-23" points="340.89 115.31 219.12 118.54 238.96 92.08 337.13 90.79 340.89 115.31"/><polygon class="cls-21" points="344.11 55.3 337.13 90.79 340.89 115.31 356.98 70.14 344.11 55.3"/><polygon class="cls-17" points="250.23 46.27 204.63 60.46 238.96 92.08 337.13 90.79 344.11 55.3 250.23 46.27"/></g><g><polygon class="cls-14" points="6.15 195.25 24.92 177.01 60.33 171.65 58.72 188.81 6.15 195.25"/><polygon class="cls-21" points="35.65 205.44 6.15 195.25 58.72 188.81 73.74 201.15 35.65 205.44"/><polygon class="cls-17" points="64.08 161.46 24.92 177.01 60.33 171.65 111.29 149.12 77.49 153.41 64.08 161.46"/><polygon class="cls-23" points="142.94 172.18 73.74 201.15 58.72 188.81 60.33 171.65 111.29 149.12 147.23 155.55 142.94 172.18"/></g><g><polygon class="cls-14" points="492.05 73.27 517.21 66.05 550.96 78.04 541.43 92.41 492.05 73.27"/><polygon class="cls-21" points="513.25 96.18 492.05 73.27 541.43 92.41 548.85 110.38 513.25 96.18"/><polygon class="cls-17" points="559.08 70.82 517.21 66.05 550.96 78.04 606.52 82.23 574.7 70.06 559.08 70.82"/><polygon class="cls-23" points="623.53 117.51 548.85 110.38 541.43 92.41 550.96 78.04 606.52 82.23 635.16 104.88 623.53 117.51"/></g><g><polygon class="cls-23" points="542.15 131.8 548.05 154.86 422.52 138.23 454.17 129.65 542.15 131.8"/><polygon class="cls-17" points="556.1 88.88 593.11 114.63 542.15 131.8 454.17 129.65 457.39 78.69 556.1 88.88"/><polygon class="cls-21" points="611.89 130.72 548.05 154.86 542.15 131.8 593.11 114.63 611.89 130.72"/><polygon class="cls-14" points="442.37 78.69 422.52 138.23 454.17 129.65 457.39 78.69 442.37 78.69"/></g><g><polygon class="cls-17" points="730.35 158.24 751.27 181.3 574.78 127.66 602.14 112.64 651.49 123.37 730.35 158.24"/><polygon class="cls-21" points="693.87 180.23 740.54 185.6 751.27 181.3 574.78 127.66 636.47 160.92 693.87 180.23"/></g><g><polygon class="cls-14" points="204.78 117.21 226.23 166.56 239.65 151.54 218.19 114.53 204.78 117.21"/><polygon class="cls-23" points="316.36 147.25 329.77 161.2 226.23 166.56 239.65 151.54 316.36 147.25"/><polygon class="cls-21" points="326.01 128.48 316.36 147.25 329.77 161.2 344.79 135.45 326.01 128.48"/><polygon class="cls-17" points="267 107.02 326.01 128.48 316.36 147.25 239.65 151.54 218.19 114.53 267 107.02"/></g><g><polygon class="cls-23" points="622.32 103.53 595.52 116.67 702.21 137.16 692.22 119.3 622.32 103.53"/><polygon class="cls-21" points="711.14 136.64 702.21 137.16 692.22 119.3 698.53 118.24 711.14 136.64"/><polygon class="cls-17" points="608.66 90.39 698.53 118.24 692.22 119.3 622.32 103.53 580.28 93.02 608.66 90.39"/><polygon class="cls-14" points="569.77 110.89 580.28 93.02 622.32 103.53 595.52 116.67 569.77 110.89"/></g></g></g><g id="Grün"><circle class="cls-26" cx="270.5" cy="890.24" r="19.77"/><circle class="cls-6" cx="254.02" cy="837.27" r="19.77"/><circle class="cls-7" cx="239.9" cy="766.64" r="19.77"/><circle class="cls-5" cx="232.84" cy="691.31" r="19.77"/><circle class="cls-1" cx="235.19" cy="615.97" r="19.77"/><circle class="cls-2" cx="255.7" cy="541.17" r="19.77"/><circle class="cls-3" cx="296.86" cy="454.68" r="19.77"/><circle class="cls-4" cx="336.87" cy="403.33" r="19.77"/></g><g id="Rot"><circle class="cls-27" cx="509.91" cy="777.6" r="11.89"/><circle class="cls-8" cx="513.75" cy="713.22" r="11.89"/><circle class="cls-9" cx="509.24" cy="642.59" r="11.89"/><circle class="cls-12" cx="478.59" cy="524.03" r="19.53"/><circle class="cls-11" cx="498.6" cy="587.59" r="19.53"/><circle class="cls-10" cx="451.51" cy="468.7" r="19.53"/><circle class="cls-13" cx="416.2" cy="419.27" r="19.53"/></g></svg>