<svg width="360" height="56" viewBox="0 0 360 56" fill="none" xmlns="http://www.w3.org/2000/svg">
<rect y="33" width="360" height="23" fill="#FF9900"/>
<path d="M31.7876 10.4545H38.2457V30.2912C38.2457 32.5185 37.7138 34.4673 36.6499 36.1378C35.5959 37.8082 34.1193 39.1108 32.2202 40.0455C30.321 40.9702 28.1087 41.4325 25.5831 41.4325C23.0476 41.4325 20.8303 40.9702 18.9311 40.0455C17.032 39.1108 15.5554 37.8082 14.5014 36.1378C13.4474 34.4673 12.9205 32.5185 12.9205 30.2912V10.4545H19.3786V29.7393C19.3786 30.9027 19.6321 31.9368 20.1392 32.8416C20.6563 33.7464 21.3821 34.4574 22.3168 34.9744C23.2514 35.4915 24.3402 35.75 25.5831 35.75C26.8359 35.75 27.9247 35.4915 28.8494 34.9744C29.7841 34.4574 30.505 33.7464 31.0121 32.8416C31.5291 31.9368 31.7876 30.9027 31.7876 29.7393V10.4545ZM51.8935 27.7557V41H45.5398V18.0909H51.5952V22.1328H51.8637C52.3708 20.8004 53.2209 19.7464 54.4141 18.9709C55.6073 18.1854 57.054 17.7926 58.7543 17.7926C60.3452 17.7926 61.7323 18.1406 62.9155 18.8366C64.0988 19.5327 65.0185 20.527 65.6748 21.8196C66.331 23.1023 66.6591 24.6335 66.6591 26.4134V41H60.3054V27.5469C60.3154 26.1449 59.9574 25.0511 59.2316 24.2656C58.5057 23.4702 57.5064 23.0724 56.2337 23.0724C55.3786 23.0724 54.6229 23.2564 53.9667 23.6243C53.3203 23.9922 52.8132 24.5291 52.4453 25.2351C52.0874 25.9311 51.9034 26.7713 51.8935 27.7557ZM92.8278 24.6236L87.0111 24.9815C86.9116 24.4844 86.6979 24.0369 86.3697 23.6392C86.0416 23.2315 85.6091 22.9084 85.0722 22.6697C84.5452 22.4212 83.9138 22.2969 83.178 22.2969C82.1936 22.2969 81.3634 22.5057 80.6872 22.9233C80.0111 23.331 79.673 23.8778 79.673 24.5639C79.673 25.1108 79.8918 25.5732 80.3293 25.951C80.7668 26.3288 81.5175 26.6321 82.5814 26.8608L86.7277 27.696C88.955 28.1534 90.6155 28.8892 91.7092 29.9034C92.803 30.9176 93.3499 32.25 93.3499 33.9006C93.3499 35.402 92.9074 36.7195 92.0224 37.853C91.1474 38.9865 89.9443 39.8714 88.4131 40.5078C86.8918 41.1342 85.1368 41.4474 83.1482 41.4474C80.1155 41.4474 77.6993 40.8161 75.8996 39.5533C74.1098 38.2805 73.0608 36.5504 72.7526 34.3629L79.0018 34.0348C79.1908 34.9595 79.6482 35.6655 80.374 36.1527C81.0999 36.63 82.0295 36.8686 83.1631 36.8686C84.2767 36.8686 85.1716 36.6548 85.8477 36.2273C86.5338 35.7898 86.8818 35.228 86.8918 34.5419C86.8818 33.9652 86.6382 33.4929 86.1609 33.125C85.6837 32.7472 84.9479 32.4588 83.9536 32.2599L79.9862 31.4695C77.749 31.022 76.0835 30.2464 74.9898 29.1428C73.906 28.0391 73.3641 26.6321 73.3641 24.9219C73.3641 23.4503 73.7618 22.1825 74.5572 21.1186C75.3626 20.0547 76.4912 19.2344 77.9429 18.6577C79.4045 18.081 81.1148 17.7926 83.0736 17.7926C85.967 17.7926 88.244 18.4041 89.9045 19.6271C91.575 20.8501 92.5494 22.5156 92.8278 24.6236ZM109.891 41.4474C107.535 41.4474 105.506 40.9702 103.806 40.0156C102.116 39.0511 100.813 37.6889 99.8982 35.929C98.9834 34.1591 98.526 32.0661 98.526 29.6499C98.526 27.2933 98.9834 25.2251 99.8982 23.4453C100.813 21.6655 102.101 20.2784 103.761 19.2841C105.432 18.2898 107.39 17.7926 109.638 17.7926C111.149 17.7926 112.556 18.0362 113.858 18.5234C115.171 19.0007 116.314 19.7216 117.289 20.6861C118.273 21.6506 119.039 22.8636 119.586 24.3253C120.133 25.777 120.406 27.4773 120.406 29.4261V31.1712H101.062V27.2337H114.425C114.425 26.3189 114.226 25.5085 113.829 24.8026C113.431 24.0966 112.879 23.5447 112.173 23.147C111.477 22.7393 110.667 22.5355 109.742 22.5355C108.777 22.5355 107.922 22.7592 107.177 23.2067C106.441 23.6442 105.864 24.2358 105.446 24.9815C105.029 25.7173 104.815 26.5376 104.805 27.4425V31.1861C104.805 32.3196 105.014 33.299 105.432 34.1243C105.859 34.9496 106.461 35.5859 107.236 36.0334C108.012 36.4808 108.932 36.7045 109.995 36.7045C110.701 36.7045 111.348 36.6051 111.934 36.4062C112.521 36.2074 113.023 35.9091 113.441 35.5114C113.858 35.1136 114.177 34.6264 114.395 34.0497L120.272 34.4375C119.973 35.8494 119.362 37.0824 118.437 38.1364C117.522 39.1804 116.339 39.9957 114.888 40.5824C113.446 41.1591 111.78 41.4474 109.891 41.4474ZM126.652 41V18.0909H132.812V22.0881H133.051C133.468 20.6662 134.169 19.5923 135.154 18.8665C136.138 18.1307 137.272 17.7628 138.554 17.7628C138.872 17.7628 139.216 17.7827 139.583 17.8224C139.951 17.8622 140.274 17.9169 140.553 17.9865V23.6243C140.255 23.5348 139.842 23.4553 139.315 23.3857C138.788 23.3161 138.306 23.2812 137.868 23.2812C136.934 23.2812 136.098 23.4851 135.363 23.8928C134.637 24.2905 134.06 24.8473 133.632 25.5632C133.215 26.2791 133.006 27.1044 133.006 28.0391V41H126.652ZM157.878 41V10.4545H169.929C172.246 10.4545 174.22 10.897 175.85 11.782C177.481 12.657 178.724 13.875 179.579 15.4361C180.444 16.9872 180.876 18.777 180.876 20.8054C180.876 22.8338 180.439 24.6236 179.564 26.1747C178.689 27.7259 177.421 28.9339 175.761 29.799C174.11 30.6641 172.112 31.0966 169.765 31.0966H162.084V25.9212H168.721C169.964 25.9212 170.988 25.7074 171.793 25.2798C172.609 24.8423 173.215 24.2408 173.613 23.4751C174.021 22.6996 174.224 21.8097 174.224 20.8054C174.224 19.7912 174.021 18.9062 173.613 18.1506C173.215 17.3849 172.609 16.7933 171.793 16.3757C170.978 15.9482 169.944 15.7344 168.691 15.7344H164.336V41H157.878ZM187.052 41V18.0909H193.212V22.0881H193.45C193.868 20.6662 194.569 19.5923 195.553 18.8665C196.538 18.1307 197.671 17.7628 198.954 17.7628C199.272 17.7628 199.615 17.7827 199.983 17.8224C200.351 17.8622 200.674 17.9169 200.952 17.9865V23.6243C200.654 23.5348 200.242 23.4553 199.715 23.3857C199.188 23.3161 198.705 23.2812 198.268 23.2812C197.333 23.2812 196.498 23.4851 195.762 23.8928C195.036 24.2905 194.46 24.8473 194.032 25.5632C193.614 26.2791 193.406 27.1044 193.406 28.0391V41H187.052ZM215.622 41.4474C213.305 41.4474 211.302 40.9553 209.611 39.9709C207.931 38.9766 206.633 37.5945 205.719 35.8246C204.804 34.0447 204.346 31.9815 204.346 29.6349C204.346 27.2685 204.804 25.2003 205.719 23.4304C206.633 21.6506 207.931 20.2685 209.611 19.2841C211.302 18.2898 213.305 17.7926 215.622 17.7926C217.939 17.7926 219.937 18.2898 221.618 19.2841C223.308 20.2685 224.611 21.6506 225.525 23.4304C226.44 25.2003 226.897 27.2685 226.897 29.6349C226.897 31.9815 226.44 34.0447 225.525 35.8246C224.611 37.5945 223.308 38.9766 221.618 39.9709C219.937 40.9553 217.939 41.4474 215.622 41.4474ZM215.652 36.5256C216.706 36.5256 217.586 36.2273 218.292 35.6307C218.998 35.0241 219.53 34.1989 219.888 33.1548C220.255 32.1108 220.439 30.9226 220.439 29.5902C220.439 28.2578 220.255 27.0696 219.888 26.0256C219.53 24.9815 218.998 24.1562 218.292 23.5497C217.586 22.9432 216.706 22.6399 215.652 22.6399C214.588 22.6399 213.693 22.9432 212.967 23.5497C212.251 24.1562 211.709 24.9815 211.341 26.0256C210.983 27.0696 210.804 28.2578 210.804 29.5902C210.804 30.9226 210.983 32.1108 211.341 33.1548C211.709 34.1989 212.251 35.0241 212.967 35.6307C213.693 36.2273 214.588 36.5256 215.652 36.5256ZM245.314 18.0909V22.8636H231.518V18.0909H245.314ZM234.65 12.6023H241.004V33.9602C241.004 34.5469 241.093 35.0043 241.272 35.3324C241.451 35.6506 241.7 35.8743 242.018 36.0036C242.346 36.1328 242.724 36.1974 243.152 36.1974C243.45 36.1974 243.748 36.1726 244.046 36.1229C244.345 36.0632 244.573 36.0185 244.733 35.9886L245.732 40.7166C245.414 40.8161 244.966 40.9304 244.39 41.0597C243.813 41.1989 243.112 41.2834 242.287 41.3132C240.755 41.3729 239.413 41.169 238.26 40.7017C237.116 40.2344 236.226 39.5085 235.59 38.5241C234.953 37.5398 234.64 36.2969 234.65 34.7955V12.6023ZM261.658 41.4474C259.341 41.4474 257.338 40.9553 255.647 39.9709C253.967 38.9766 252.669 37.5945 251.754 35.8246C250.84 34.0447 250.382 31.9815 250.382 29.6349C250.382 27.2685 250.84 25.2003 251.754 23.4304C252.669 21.6506 253.967 20.2685 255.647 19.2841C257.338 18.2898 259.341 17.7926 261.658 17.7926C263.975 17.7926 265.973 18.2898 267.654 19.2841C269.344 20.2685 270.646 21.6506 271.561 23.4304C272.476 25.2003 272.933 27.2685 272.933 29.6349C272.933 31.9815 272.476 34.0447 271.561 35.8246C270.646 37.5945 269.344 38.9766 267.654 39.9709C265.973 40.9553 263.975 41.4474 261.658 41.4474ZM261.688 36.5256C262.742 36.5256 263.622 36.2273 264.328 35.6307C265.034 35.0241 265.566 34.1989 265.923 33.1548C266.291 32.1108 266.475 30.9226 266.475 29.5902C266.475 28.2578 266.291 27.0696 265.923 26.0256C265.566 24.9815 265.034 24.1562 264.328 23.5497C263.622 22.9432 262.742 22.6399 261.688 22.6399C260.624 22.6399 259.729 22.9432 259.003 23.5497C258.287 24.1562 257.745 24.9815 257.377 26.0256C257.019 27.0696 256.84 28.2578 256.84 29.5902C256.84 30.9226 257.019 32.1108 257.377 33.1548C257.745 34.1989 258.287 35.0241 259.003 35.6307C259.729 36.2273 260.624 36.5256 261.688 36.5256ZM291.35 18.0909V22.8636H277.554V18.0909H291.35ZM280.686 12.6023H287.04V33.9602C287.04 34.5469 287.129 35.0043 287.308 35.3324C287.487 35.6506 287.736 35.8743 288.054 36.0036C288.382 36.1328 288.76 36.1974 289.188 36.1974C289.486 36.1974 289.784 36.1726 290.082 36.1229C290.381 36.0632 290.609 36.0185 290.769 35.9886L291.768 40.7166C291.45 40.8161 291.002 40.9304 290.425 41.0597C289.849 41.1989 289.148 41.2834 288.322 41.3132C286.791 41.3729 285.449 41.169 284.295 40.7017C283.152 40.2344 282.262 39.5085 281.626 38.5241C280.989 37.5398 280.676 36.2969 280.686 34.7955V12.6023ZM301.512 49.5909C300.706 49.5909 299.951 49.5263 299.245 49.397C298.549 49.2777 297.972 49.1236 297.514 48.9347L298.946 44.1918C299.692 44.4205 300.363 44.5447 300.96 44.5646C301.566 44.5845 302.088 44.4453 302.526 44.147C302.973 43.8487 303.336 43.3416 303.615 42.6257L303.987 41.6562L295.769 18.0909H302.451L307.194 34.9148H307.433L312.22 18.0909H318.947L310.043 43.4759C309.615 44.7088 309.034 45.7827 308.298 46.6974C307.572 47.6222 306.652 48.3331 305.539 48.8303C304.425 49.3374 303.083 49.5909 301.512 49.5909ZM324.298 49.5909V18.0909H330.563V21.9389H330.846C331.124 21.3224 331.527 20.696 332.054 20.0597C332.591 19.4134 333.287 18.8764 334.142 18.4489C335.007 18.0114 336.081 17.7926 337.364 17.7926C339.034 17.7926 340.575 18.2301 341.987 19.1051C343.399 19.9702 344.528 21.2777 345.373 23.0277C346.218 24.7678 346.641 26.9503 346.641 29.5753C346.641 32.1307 346.228 34.2884 345.403 36.0483C344.587 37.7983 343.474 39.1257 342.062 40.0305C340.66 40.9254 339.089 41.3729 337.349 41.3729C336.116 41.3729 335.067 41.169 334.202 40.7614C333.347 40.3537 332.646 39.8416 332.099 39.2251C331.552 38.5987 331.134 37.9673 330.846 37.331H330.652V49.5909H324.298ZM330.518 29.5455C330.518 30.9077 330.707 32.0959 331.085 33.1101C331.462 34.1243 332.009 34.9148 332.725 35.4815C333.441 36.0384 334.311 36.3168 335.335 36.3168C336.369 36.3168 337.244 36.0334 337.96 35.4666C338.676 34.8899 339.218 34.0945 339.586 33.0803C339.964 32.0561 340.153 30.8778 340.153 29.5455C340.153 28.223 339.969 27.0597 339.601 26.0554C339.233 25.0511 338.691 24.2656 337.975 23.6989C337.259 23.1321 336.379 22.8487 335.335 22.8487C334.301 22.8487 333.426 23.1222 332.71 23.669C332.004 24.2159 331.462 24.9915 331.085 25.9957C330.707 27 330.518 28.1832 330.518 29.5455Z" fill="black"/>
</svg>
