<svg width="358" height="56" viewBox="0 0 358 56" fill="none" xmlns="http://www.w3.org/2000/svg">
<rect y="33" width="358" height="23" fill="#77CEFF"/>
<path d="M23.7486 41H12.9205V10.4545H23.8381C26.9105 10.4545 29.5554 11.0661 31.7727 12.2891C33.9901 13.5021 35.6953 15.2472 36.8885 17.5241C38.0916 19.8011 38.6932 22.5256 38.6932 25.6974C38.6932 28.8793 38.0916 31.6136 36.8885 33.9006C35.6953 36.1875 33.9801 37.9425 31.7429 39.1655C29.5156 40.3885 26.8509 41 23.7486 41ZM19.3786 35.4666H23.4801C25.3892 35.4666 26.995 35.1286 28.2976 34.4524C29.6101 33.7663 30.5945 32.7074 31.2507 31.2756C31.9169 29.8338 32.25 27.9744 32.25 25.6974C32.25 23.4403 31.9169 21.5959 31.2507 20.1641C30.5945 18.7322 29.6151 17.6783 28.3125 17.0021C27.0099 16.326 25.4041 15.9879 23.495 15.9879H19.3786V35.4666ZM45.4578 41V18.0909H51.8115V41H45.4578ZM48.6495 15.1378C47.7049 15.1378 46.8946 14.8246 46.2184 14.1982C45.5522 13.5618 45.2191 12.8011 45.2191 11.9162C45.2191 11.0412 45.5522 10.2905 46.2184 9.66406C46.8946 9.0277 47.7049 8.70952 48.6495 8.70952C49.5941 8.70952 50.3995 9.0277 51.0657 9.66406C51.7419 10.2905 52.0799 11.0412 52.0799 11.9162C52.0799 12.8011 51.7419 13.5618 51.0657 14.1982C50.3995 14.8246 49.5941 15.1378 48.6495 15.1378ZM69.4415 41.4474C67.0849 41.4474 65.0565 40.9702 63.3563 40.0156C61.6659 39.0511 60.3634 37.6889 59.4486 35.929C58.5338 34.1591 58.0764 32.0661 58.0764 29.6499C58.0764 27.2933 58.5338 25.2251 59.4486 23.4453C60.3634 21.6655 61.651 20.2784 63.3115 19.2841C64.982 18.2898 66.9408 17.7926 69.1879 17.7926C70.6993 17.7926 72.1063 18.0362 73.4088 18.5234C74.7213 19.0007 75.8648 19.7216 76.8392 20.6861C77.8236 21.6506 78.5892 22.8636 79.1361 24.3253C79.683 25.777 79.9564 27.4773 79.9564 29.4261V31.1712H60.6119V27.2337H73.9756C73.9756 26.3189 73.7767 25.5085 73.379 24.8026C72.9813 24.0966 72.4294 23.5447 71.7234 23.147C71.0274 22.7393 70.217 22.5355 69.2923 22.5355C68.3278 22.5355 67.4727 22.7592 66.727 23.2067C65.9912 23.6442 65.4145 24.2358 64.9969 24.9815C64.5793 25.7173 64.3655 26.5376 64.3555 27.4425V31.1861C64.3555 32.3196 64.5643 33.299 64.982 34.1243C65.4095 34.9496 66.0111 35.5859 66.7866 36.0334C67.5622 36.4808 68.482 36.7045 69.5459 36.7045C70.2518 36.7045 70.8982 36.6051 71.4848 36.4062C72.0715 36.2074 72.5736 35.9091 72.9912 35.5114C73.4088 35.1136 73.727 34.6264 73.9457 34.0497L79.8222 34.4375C79.5239 35.8494 78.9124 37.0824 77.9876 38.1364C77.0729 39.1804 75.8896 39.9957 74.4379 40.5824C72.9962 41.1591 71.3307 41.4474 69.4415 41.4474ZM104.601 10.4545V41H98.1427V10.4545H104.601ZM118.249 27.7557V41H111.895V18.0909H117.95V22.1328H118.219C118.726 20.8004 119.576 19.7464 120.769 18.9709C121.962 18.1854 123.409 17.7926 125.109 17.7926C126.7 17.7926 128.087 18.1406 129.271 18.8366C130.454 19.5327 131.374 20.527 132.03 21.8196C132.686 23.1023 133.014 24.6335 133.014 26.4134V41H126.661V27.5469C126.67 26.1449 126.313 25.0511 125.587 24.2656C124.861 23.4702 123.862 23.0724 122.589 23.0724C121.734 23.0724 120.978 23.2564 120.322 23.6243C119.675 23.9922 119.168 24.5291 118.8 25.2351C118.442 25.9311 118.259 26.7713 118.249 27.7557ZM159.183 24.6236L153.366 24.9815C153.267 24.4844 153.053 24.0369 152.725 23.6392C152.397 23.2315 151.964 22.9084 151.427 22.6697C150.9 22.4212 150.269 22.2969 149.533 22.2969C148.549 22.2969 147.718 22.5057 147.042 22.9233C146.366 23.331 146.028 23.8778 146.028 24.5639C146.028 25.1108 146.247 25.5732 146.684 25.951C147.122 26.3288 147.873 26.6321 148.936 26.8608L153.083 27.696C155.31 28.1534 156.971 28.8892 158.064 29.9034C159.158 30.9176 159.705 32.25 159.705 33.9006C159.705 35.402 159.262 36.7195 158.378 37.853C157.503 38.9865 156.299 39.8714 154.768 40.5078C153.247 41.1342 151.492 41.4474 149.503 41.4474C146.471 41.4474 144.054 40.8161 142.255 39.5533C140.465 38.2805 139.416 36.5504 139.108 34.3629L145.357 34.0348C145.546 34.9595 146.003 35.6655 146.729 36.1527C147.455 36.63 148.385 36.8686 149.518 36.8686C150.632 36.8686 151.527 36.6548 152.203 36.2273C152.889 35.7898 153.237 35.228 153.247 34.5419C153.237 33.9652 152.993 33.4929 152.516 33.125C152.039 32.7472 151.303 32.4588 150.309 32.2599L146.341 31.4695C144.104 31.022 142.439 30.2464 141.345 29.1428C140.261 28.0391 139.719 26.6321 139.719 24.9219C139.719 23.4503 140.117 22.1825 140.912 21.1186C141.718 20.0547 142.846 19.2344 144.298 18.6577C145.76 18.081 147.47 17.7926 149.429 17.7926C152.322 17.7926 154.599 18.4041 156.26 19.6271C157.93 20.8501 158.905 22.5156 159.183 24.6236ZM177.991 18.0909V22.8636H164.195V18.0909H177.991ZM167.327 12.6023H173.681V33.9602C173.681 34.5469 173.77 35.0043 173.949 35.3324C174.128 35.6506 174.377 35.8743 174.695 36.0036C175.023 36.1328 175.401 36.1974 175.829 36.1974C176.127 36.1974 176.425 36.1726 176.723 36.1229C177.022 36.0632 177.25 36.0185 177.41 35.9886L178.409 40.7166C178.091 40.8161 177.643 40.9304 177.066 41.0597C176.49 41.1989 175.789 41.2834 174.963 41.3132C173.432 41.3729 172.09 41.169 170.937 40.7017C169.793 40.2344 168.903 39.5085 168.267 38.5241C167.63 37.5398 167.317 36.2969 167.327 34.7955V12.6023ZM190.763 41.4325C189.301 41.4325 187.999 41.179 186.855 40.6719C185.712 40.1548 184.807 39.3942 184.141 38.3899C183.484 37.3757 183.156 36.1129 183.156 34.6016C183.156 33.3288 183.39 32.2599 183.857 31.3949C184.325 30.5298 184.961 29.8338 185.766 29.3068C186.572 28.7798 187.486 28.3821 188.511 28.1136C189.545 27.8452 190.628 27.6562 191.762 27.5469C193.094 27.4077 194.168 27.2784 194.984 27.1591C195.799 27.0298 196.391 26.8409 196.758 26.5923C197.126 26.3437 197.31 25.9759 197.31 25.4886V25.3991C197.31 24.4545 197.012 23.7237 196.415 23.2067C195.829 22.6896 194.994 22.4311 193.91 22.4311C192.766 22.4311 191.856 22.6847 191.18 23.1918C190.504 23.6889 190.057 24.3153 189.838 25.071L183.962 24.5938C184.26 23.2017 184.847 21.9986 185.722 20.9844C186.597 19.9602 187.725 19.1747 189.107 18.6278C190.499 18.071 192.11 17.7926 193.94 17.7926C195.212 17.7926 196.43 17.9418 197.594 18.2401C198.767 18.5384 199.806 19.0007 200.711 19.6271C201.626 20.2536 202.347 21.0589 202.874 22.0433C203.401 23.0178 203.664 24.1861 203.664 25.5483V41H197.638V37.8232H197.459C197.092 38.5391 196.599 39.1705 195.983 39.7173C195.366 40.2543 194.626 40.6768 193.761 40.9851C192.896 41.2834 191.896 41.4325 190.763 41.4325ZM192.582 37.0476C193.517 37.0476 194.342 36.8636 195.058 36.4957C195.774 36.1179 196.336 35.6108 196.744 34.9744C197.151 34.3381 197.355 33.6172 197.355 32.8118V30.3807C197.156 30.5099 196.883 30.6293 196.535 30.7386C196.197 30.8381 195.814 30.9325 195.386 31.022C194.959 31.1016 194.531 31.1761 194.104 31.2457C193.676 31.3054 193.288 31.3601 192.94 31.4098C192.195 31.5192 191.543 31.6932 190.986 31.9318C190.43 32.1705 189.997 32.4936 189.689 32.9013C189.381 33.299 189.226 33.7962 189.226 34.3928C189.226 35.2578 189.54 35.919 190.166 36.3764C190.802 36.8239 191.608 37.0476 192.582 37.0476ZM217.047 10.4545V41H210.693V10.4545H217.047ZM230.59 10.4545V41H224.237V10.4545H230.59ZM244.313 41.4325C242.851 41.4325 241.549 41.179 240.405 40.6719C239.262 40.1548 238.357 39.3942 237.691 38.3899C237.034 37.3757 236.706 36.1129 236.706 34.6016C236.706 33.3288 236.94 32.2599 237.407 31.3949C237.875 30.5298 238.511 29.8338 239.316 29.3068C240.122 28.7798 241.036 28.3821 242.061 28.1136C243.095 27.8452 244.178 27.6562 245.312 27.5469C246.644 27.4077 247.718 27.2784 248.534 27.1591C249.349 27.0298 249.941 26.8409 250.308 26.5923C250.676 26.3437 250.86 25.9759 250.86 25.4886V25.3991C250.86 24.4545 250.562 23.7237 249.965 23.2067C249.379 22.6896 248.544 22.4311 247.46 22.4311C246.316 22.4311 245.406 22.6847 244.73 23.1918C244.054 23.6889 243.607 24.3153 243.388 25.071L237.512 24.5938C237.81 23.2017 238.397 21.9986 239.272 20.9844C240.147 19.9602 241.275 19.1747 242.657 18.6278C244.049 18.071 245.66 17.7926 247.49 17.7926C248.762 17.7926 249.98 17.9418 251.144 18.2401C252.317 18.5384 253.356 19.0007 254.261 19.6271C255.176 20.2536 255.897 21.0589 256.424 22.0433C256.951 23.0178 257.214 24.1861 257.214 25.5483V41H251.188V37.8232H251.009C250.642 38.5391 250.149 39.1705 249.533 39.7173C248.916 40.2543 248.176 40.6768 247.311 40.9851C246.446 41.2834 245.446 41.4325 244.313 41.4325ZM246.132 37.0476C247.067 37.0476 247.892 36.8636 248.608 36.4957C249.324 36.1179 249.886 35.6108 250.294 34.9744C250.701 34.3381 250.905 33.6172 250.905 32.8118V30.3807C250.706 30.5099 250.433 30.6293 250.085 30.7386C249.747 30.8381 249.364 30.9325 248.936 31.022C248.509 31.1016 248.081 31.1761 247.654 31.2457C247.226 31.3054 246.838 31.3601 246.49 31.4098C245.745 31.5192 245.093 31.6932 244.536 31.9318C243.98 32.1705 243.547 32.4936 243.239 32.9013C242.931 33.299 242.776 33.7962 242.776 34.3928C242.776 35.2578 243.09 35.919 243.716 36.3764C244.352 36.8239 245.158 37.0476 246.132 37.0476ZM276.429 18.0909V22.8636H262.633V18.0909H276.429ZM265.765 12.6023H272.118V33.9602C272.118 34.5469 272.208 35.0043 272.387 35.3324C272.566 35.6506 272.814 35.8743 273.133 36.0036C273.461 36.1328 273.838 36.1974 274.266 36.1974C274.564 36.1974 274.863 36.1726 275.161 36.1229C275.459 36.0632 275.688 36.0185 275.847 35.9886L276.846 40.7166C276.528 40.8161 276.081 40.9304 275.504 41.0597C274.927 41.1989 274.226 41.2834 273.401 41.3132C271.87 41.3729 270.527 41.169 269.374 40.7017C268.231 40.2344 267.341 39.5085 266.704 38.5241C266.068 37.5398 265.755 36.2969 265.765 34.7955V12.6023ZM282.668 41V18.0909H289.021V41H282.668ZM285.859 15.1378C284.915 15.1378 284.104 14.8246 283.428 14.1982C282.762 13.5618 282.429 12.8011 282.429 11.9162C282.429 11.0412 282.762 10.2905 283.428 9.66406C284.104 9.0277 284.915 8.70952 285.859 8.70952C286.804 8.70952 287.609 9.0277 288.275 9.66406C288.952 10.2905 289.29 11.0412 289.29 11.9162C289.29 12.8011 288.952 13.5618 288.275 14.1982C287.609 14.8246 286.804 15.1378 285.859 15.1378ZM306.562 41.4474C304.245 41.4474 302.241 40.9553 300.551 39.9709C298.871 38.9766 297.573 37.5945 296.658 35.8246C295.744 34.0447 295.286 31.9815 295.286 29.6349C295.286 27.2685 295.744 25.2003 296.658 23.4304C297.573 21.6506 298.871 20.2685 300.551 19.2841C302.241 18.2898 304.245 17.7926 306.562 17.7926C308.879 17.7926 310.877 18.2898 312.557 19.2841C314.248 20.2685 315.55 21.6506 316.465 23.4304C317.38 25.2003 317.837 27.2685 317.837 29.6349C317.837 31.9815 317.38 34.0447 316.465 35.8246C315.55 37.5945 314.248 38.9766 312.557 39.9709C310.877 40.9553 308.879 41.4474 306.562 41.4474ZM306.592 36.5256C307.646 36.5256 308.526 36.2273 309.231 35.6307C309.937 35.0241 310.469 34.1989 310.827 33.1548C311.195 32.1108 311.379 30.9226 311.379 29.5902C311.379 28.2578 311.195 27.0696 310.827 26.0256C310.469 24.9815 309.937 24.1562 309.231 23.5497C308.526 22.9432 307.646 22.6399 306.592 22.6399C305.528 22.6399 304.633 22.9432 303.907 23.5497C303.191 24.1562 302.649 24.9815 302.281 26.0256C301.923 27.0696 301.744 28.2578 301.744 29.5902C301.744 30.9226 301.923 32.1108 302.281 33.1548C302.649 34.1989 303.191 35.0241 303.907 35.6307C304.633 36.2273 305.528 36.5256 306.592 36.5256ZM330.422 27.7557V41H324.069V18.0909H330.124V22.1328H330.393C330.9 20.8004 331.75 19.7464 332.943 18.9709C334.136 18.1854 335.583 17.7926 337.283 17.7926C338.874 17.7926 340.261 18.1406 341.444 18.8366C342.628 19.5327 343.547 20.527 344.204 21.8196C344.86 23.1023 345.188 24.6335 345.188 26.4134V41H338.834V27.5469C338.844 26.1449 338.486 25.0511 337.76 24.2656C337.035 23.4702 336.035 23.0724 334.763 23.0724C333.907 23.0724 333.152 23.2564 332.496 23.6243C331.849 23.9922 331.342 24.5291 330.974 25.2351C330.616 25.9311 330.432 26.7713 330.422 27.7557Z" fill="black"/>
</svg>
