<svg width="237" height="56" viewBox="0 0 237 56" fill="none" xmlns="http://www.w3.org/2000/svg">
<rect y="33" width="237" height="23" fill="#77CEFF"/>
<path d="M23.7486 41H12.9205V10.4545H23.8381C26.9105 10.4545 29.5554 11.0661 31.7727 12.2891C33.9901 13.5021 35.6953 15.2472 36.8885 17.5241C38.0916 19.8011 38.6932 22.5256 38.6932 25.6974C38.6932 28.8793 38.0916 31.6136 36.8885 33.9006C35.6953 36.1875 33.9801 37.9425 31.7429 39.1655C29.5156 40.3885 26.8509 41 23.7486 41ZM19.3786 35.4666H23.4801C25.3892 35.4666 26.995 35.1286 28.2976 34.4524C29.6101 33.7663 30.5945 32.7074 31.2507 31.2756C31.9169 29.8338 32.25 27.9744 32.25 25.6974C32.25 23.4403 31.9169 21.5959 31.2507 20.1641C30.5945 18.7322 29.6151 17.6783 28.3125 17.0021C27.0099 16.326 25.4041 15.9879 23.495 15.9879H19.3786V35.4666ZM51.9904 41.4325C50.5288 41.4325 49.2262 41.179 48.0828 40.6719C46.9393 40.1548 46.0345 39.3942 45.3683 38.3899C44.712 37.3757 44.3839 36.1129 44.3839 34.6016C44.3839 33.3288 44.6176 32.2599 45.0849 31.3949C45.5522 30.5298 46.1886 29.8338 46.994 29.3068C47.7994 28.7798 48.7142 28.3821 49.7383 28.1136C50.7724 27.8452 51.8562 27.6562 52.9897 27.5469C54.3221 27.4077 55.396 27.2784 56.2113 27.1591C57.0267 27.0298 57.6183 26.8409 57.9862 26.5923C58.3541 26.3437 58.538 25.9759 58.538 25.4886V25.3991C58.538 24.4545 58.2397 23.7237 57.6431 23.2067C57.0565 22.6896 56.2213 22.4311 55.1375 22.4311C53.994 22.4311 53.0842 22.6847 52.4081 23.1918C51.7319 23.6889 51.2845 24.3153 51.0657 25.071L45.1893 24.5938C45.4876 23.2017 46.0743 21.9986 46.9493 20.9844C47.8243 19.9602 48.9528 19.1747 50.3349 18.6278C51.727 18.071 53.3377 17.7926 55.1673 17.7926C56.44 17.7926 57.6581 17.9418 58.8214 18.2401C59.9947 18.5384 61.0338 19.0007 61.9386 19.6271C62.8534 20.2536 63.5743 21.0589 64.1012 22.0433C64.6282 23.0178 64.8917 24.1861 64.8917 25.5483V41H58.8662V37.8232H58.6872C58.3193 38.5391 57.8271 39.1705 57.2106 39.7173C56.5941 40.2543 55.8534 40.6768 54.9883 40.9851C54.1233 41.2834 53.124 41.4325 51.9904 41.4325ZM53.81 37.0476C54.7447 37.0476 55.57 36.8636 56.2859 36.4957C57.0018 36.1179 57.5636 35.6108 57.9713 34.9744C58.3789 34.3381 58.5828 33.6172 58.5828 32.8118V30.3807C58.3839 30.5099 58.1105 30.6293 57.7625 30.7386C57.4244 30.8381 57.0416 30.9325 56.614 31.022C56.1865 31.1016 55.7589 31.1761 55.3314 31.2457C54.9038 31.3054 54.516 31.3601 54.168 31.4098C53.4223 31.5192 52.771 31.6932 52.2142 31.9318C51.6573 32.1705 51.2248 32.4936 50.9166 32.9013C50.6083 33.299 50.4542 33.7962 50.4542 34.3928C50.4542 35.2578 50.7674 35.919 51.3939 36.3764C52.0302 36.8239 52.8356 37.0476 53.81 37.0476ZM90.9821 24.6236L85.1654 24.9815C85.0659 24.4844 84.8522 24.0369 84.524 23.6392C84.1959 23.2315 83.7634 22.9084 83.2265 22.6697C82.6995 22.4212 82.0681 22.2969 81.3323 22.2969C80.3479 22.2969 79.5177 22.5057 78.8415 22.9233C78.1654 23.331 77.8273 23.8778 77.8273 24.5639C77.8273 25.1108 78.0461 25.5732 78.4836 25.951C78.9211 26.3288 79.6718 26.6321 80.7357 26.8608L84.882 27.696C87.1093 28.1534 88.7698 28.8892 89.8635 29.9034C90.9573 30.9176 91.5042 32.25 91.5042 33.9006C91.5042 35.402 91.0617 36.7195 90.1767 37.853C89.3017 38.9865 88.0986 39.8714 86.5674 40.5078C85.0461 41.1342 83.2911 41.4474 81.3025 41.4474C78.2698 41.4474 75.8536 40.8161 74.0539 39.5533C72.2641 38.2805 71.2151 36.5504 70.9069 34.3629L77.1561 34.0348C77.3451 34.9595 77.8025 35.6655 78.5283 36.1527C79.2542 36.63 80.1838 36.8686 81.3174 36.8686C82.431 36.8686 83.3259 36.6548 84.002 36.2273C84.6881 35.7898 85.0361 35.228 85.0461 34.5419C85.0361 33.9652 84.7925 33.4929 84.3152 33.125C83.838 32.7472 83.1022 32.4588 82.1078 32.2599L78.1405 31.4695C75.9033 31.022 74.2378 30.2464 73.1441 29.1428C72.0603 28.0391 71.5184 26.6321 71.5184 24.9219C71.5184 23.4503 71.9161 22.1825 72.7115 21.1186C73.5169 20.0547 74.6455 19.2344 76.0972 18.6577C77.5588 18.081 79.2691 17.7926 81.2279 17.7926C84.1213 17.7926 86.3983 18.4041 88.0588 19.6271C89.7293 20.8501 90.7037 22.5156 90.9821 24.6236ZM108.382 15.7791V10.4545H133.468V15.7791H124.117V41H117.733V15.7791H108.382ZM146.699 41.4474C144.342 41.4474 142.314 40.9702 140.613 40.0156C138.923 39.0511 137.62 37.6889 136.706 35.929C135.791 34.1591 135.333 32.0661 135.333 29.6499C135.333 27.2933 135.791 25.2251 136.706 23.4453C137.62 21.6655 138.908 20.2784 140.569 19.2841C142.239 18.2898 144.198 17.7926 146.445 17.7926C147.956 17.7926 149.363 18.0362 150.666 18.5234C151.978 19.0007 153.122 19.7216 154.096 20.6861C155.081 21.6506 155.846 22.8636 156.393 24.3253C156.94 25.777 157.213 27.4773 157.213 29.4261V31.1712H137.869V27.2337H151.233C151.233 26.3189 151.034 25.5085 150.636 24.8026C150.238 24.0966 149.686 23.5447 148.98 23.147C148.284 22.7393 147.474 22.5355 146.549 22.5355C145.585 22.5355 144.73 22.7592 143.984 23.2067C143.248 23.6442 142.672 24.2358 142.254 24.9815C141.836 25.7173 141.623 26.5376 141.613 27.4425V31.1861C141.613 32.3196 141.821 33.299 142.239 34.1243C142.667 34.9496 143.268 35.5859 144.044 36.0334C144.819 36.4808 145.739 36.7045 146.803 36.7045C147.509 36.7045 148.155 36.6051 148.742 36.4062C149.328 36.2074 149.831 35.9091 150.248 35.5114C150.666 35.1136 150.984 34.6264 151.203 34.0497L157.079 34.4375C156.781 35.8494 156.169 37.0824 155.245 38.1364C154.33 39.1804 153.147 39.9957 151.695 40.5824C150.253 41.1591 148.588 41.4474 146.699 41.4474ZM169.992 41.4325C168.531 41.4325 167.228 41.179 166.085 40.6719C164.941 40.1548 164.036 39.3942 163.37 38.3899C162.714 37.3757 162.386 36.1129 162.386 34.6016C162.386 33.3288 162.62 32.2599 163.087 31.3949C163.554 30.5298 164.191 29.8338 164.996 29.3068C165.801 28.7798 166.716 28.3821 167.74 28.1136C168.774 27.8452 169.858 27.6562 170.992 27.5469C172.324 27.4077 173.398 27.2784 174.213 27.1591C175.029 27.0298 175.62 26.8409 175.988 26.5923C176.356 26.3437 176.54 25.9759 176.54 25.4886V25.3991C176.54 24.4545 176.242 23.7237 175.645 23.2067C175.058 22.6896 174.223 22.4311 173.139 22.4311C171.996 22.4311 171.086 22.6847 170.41 23.1918C169.734 23.6889 169.286 24.3153 169.068 25.071L163.191 24.5938C163.49 23.2017 164.076 21.9986 164.951 20.9844C165.826 19.9602 166.955 19.1747 168.337 18.6278C169.729 18.071 171.34 17.7926 173.169 17.7926C174.442 17.7926 175.66 17.9418 176.823 18.2401C177.997 18.5384 179.036 19.0007 179.941 19.6271C180.855 20.2536 181.576 21.0589 182.103 22.0433C182.63 23.0178 182.894 24.1861 182.894 25.5483V41H176.868V37.8232H176.689C176.321 38.5391 175.829 39.1705 175.213 39.7173C174.596 40.2543 173.855 40.6768 172.99 40.9851C172.125 41.2834 171.126 41.4325 169.992 41.4325ZM171.812 37.0476C172.747 37.0476 173.572 36.8636 174.288 36.4957C175.004 36.1179 175.566 35.6108 175.973 34.9744C176.381 34.3381 176.585 33.6172 176.585 32.8118V30.3807C176.386 30.5099 176.112 30.6293 175.764 30.7386C175.426 30.8381 175.044 30.9325 174.616 31.022C174.188 31.1016 173.761 31.1761 173.333 31.2457C172.906 31.3054 172.518 31.3601 172.17 31.4098C171.424 31.5192 170.773 31.6932 170.216 31.9318C169.659 32.1705 169.227 32.4936 168.919 32.9013C168.61 33.299 168.456 33.7962 168.456 34.3928C168.456 35.2578 168.769 35.919 169.396 36.3764C170.032 36.8239 170.838 37.0476 171.812 37.0476ZM189.923 41V18.0909H195.978V22.1328H196.247C196.724 20.7905 197.52 19.7315 198.633 18.956C199.747 18.1804 201.079 17.7926 202.63 17.7926C204.201 17.7926 205.539 18.1854 206.642 18.9709C207.746 19.7464 208.482 20.8004 208.85 22.1328H209.088C209.556 20.8203 210.401 19.7713 211.624 18.9858C212.857 18.1903 214.314 17.7926 215.994 17.7926C218.132 17.7926 219.867 18.4737 221.199 19.8359C222.542 21.1882 223.213 23.1072 223.213 25.593V41H216.874V26.8459C216.874 25.5732 216.536 24.6186 215.86 23.9822C215.184 23.3459 214.338 23.0277 213.324 23.0277C212.171 23.0277 211.271 23.3956 210.625 24.1314C209.978 24.8572 209.655 25.8168 209.655 27.0099V41H203.495V26.7116C203.495 25.5881 203.172 24.6932 202.526 24.027C201.89 23.3608 201.049 23.0277 200.005 23.0277C199.299 23.0277 198.663 23.2067 198.096 23.5646C197.539 23.9126 197.097 24.4048 196.769 25.0412C196.441 25.6676 196.277 26.4034 196.277 27.2486V41H189.923Z" fill="black"/>
</svg>
