<svg width="662" height="56" viewBox="0 0 662 56" fill="none" xmlns="http://www.w3.org/2000/svg">
<rect y="33" width="662" height="23" fill="#FF9900"/>
<path d="M31.7876 10.4545H38.2457V30.2912C38.2457 32.5185 37.7138 34.4673 36.6499 36.1378C35.5959 37.8082 34.1193 39.1108 32.2202 40.0455C30.321 40.9702 28.1087 41.4325 25.5831 41.4325C23.0476 41.4325 20.8303 40.9702 18.9311 40.0455C17.032 39.1108 15.5554 37.8082 14.5014 36.1378C13.4474 34.4673 12.9205 32.5185 12.9205 30.2912V10.4545H19.3786V29.7393C19.3786 30.9027 19.6321 31.9368 20.1392 32.8416C20.6563 33.7464 21.3821 34.4574 22.3168 34.9744C23.2514 35.4915 24.3402 35.75 25.5831 35.75C26.8359 35.75 27.9247 35.4915 28.8494 34.9744C29.7841 34.4574 30.505 33.7464 31.0121 32.8416C31.5291 31.9368 31.7876 30.9027 31.7876 29.7393V10.4545ZM51.8935 27.7557V41H45.5398V18.0909H51.5952V22.1328H51.8637C52.3708 20.8004 53.2209 19.7464 54.4141 18.9709C55.6073 18.1854 57.054 17.7926 58.7543 17.7926C60.3452 17.7926 61.7323 18.1406 62.9155 18.8366C64.0988 19.5327 65.0185 20.527 65.6748 21.8196C66.331 23.1023 66.6591 24.6335 66.6591 26.4134V41H60.3054V27.5469C60.3154 26.1449 59.9574 25.0511 59.2316 24.2656C58.5057 23.4702 57.5064 23.0724 56.2337 23.0724C55.3786 23.0724 54.6229 23.2564 53.9667 23.6243C53.3203 23.9922 52.8132 24.5291 52.4453 25.2351C52.0874 25.9311 51.9034 26.7713 51.8935 27.7557ZM92.8278 24.6236L87.0111 24.9815C86.9116 24.4844 86.6979 24.0369 86.3697 23.6392C86.0416 23.2315 85.6091 22.9084 85.0722 22.6697C84.5452 22.4212 83.9138 22.2969 83.178 22.2969C82.1936 22.2969 81.3634 22.5057 80.6872 22.9233C80.0111 23.331 79.673 23.8778 79.673 24.5639C79.673 25.1108 79.8918 25.5732 80.3293 25.951C80.7668 26.3288 81.5175 26.6321 82.5814 26.8608L86.7277 27.696C88.955 28.1534 90.6155 28.8892 91.7092 29.9034C92.803 30.9176 93.3499 32.25 93.3499 33.9006C93.3499 35.402 92.9074 36.7195 92.0224 37.853C91.1474 38.9865 89.9443 39.8714 88.4131 40.5078C86.8918 41.1342 85.1368 41.4474 83.1482 41.4474C80.1155 41.4474 77.6993 40.8161 75.8996 39.5533C74.1098 38.2805 73.0608 36.5504 72.7526 34.3629L79.0018 34.0348C79.1908 34.9595 79.6482 35.6655 80.374 36.1527C81.0999 36.63 82.0295 36.8686 83.1631 36.8686C84.2767 36.8686 85.1716 36.6548 85.8477 36.2273C86.5338 35.7898 86.8818 35.228 86.8918 34.5419C86.8818 33.9652 86.6382 33.4929 86.1609 33.125C85.6837 32.7472 84.9479 32.4588 83.9536 32.2599L79.9862 31.4695C77.749 31.022 76.0835 30.2464 74.9898 29.1428C73.906 28.0391 73.3641 26.6321 73.3641 24.9219C73.3641 23.4503 73.7618 22.1825 74.5572 21.1186C75.3626 20.0547 76.4912 19.2344 77.9429 18.6577C79.4045 18.081 81.1148 17.7926 83.0736 17.7926C85.967 17.7926 88.244 18.4041 89.9045 19.6271C91.575 20.8501 92.5494 22.5156 92.8278 24.6236ZM109.891 41.4474C107.535 41.4474 105.506 40.9702 103.806 40.0156C102.116 39.0511 100.813 37.6889 99.8982 35.929C98.9834 34.1591 98.526 32.0661 98.526 29.6499C98.526 27.2933 98.9834 25.2251 99.8982 23.4453C100.813 21.6655 102.101 20.2784 103.761 19.2841C105.432 18.2898 107.39 17.7926 109.638 17.7926C111.149 17.7926 112.556 18.0362 113.858 18.5234C115.171 19.0007 116.314 19.7216 117.289 20.6861C118.273 21.6506 119.039 22.8636 119.586 24.3253C120.133 25.777 120.406 27.4773 120.406 29.4261V31.1712H101.062V27.2337H114.425C114.425 26.3189 114.226 25.5085 113.829 24.8026C113.431 24.0966 112.879 23.5447 112.173 23.147C111.477 22.7393 110.667 22.5355 109.742 22.5355C108.777 22.5355 107.922 22.7592 107.177 23.2067C106.441 23.6442 105.864 24.2358 105.446 24.9815C105.029 25.7173 104.815 26.5376 104.805 27.4425V31.1861C104.805 32.3196 105.014 33.299 105.432 34.1243C105.859 34.9496 106.461 35.5859 107.236 36.0334C108.012 36.4808 108.932 36.7045 109.995 36.7045C110.701 36.7045 111.348 36.6051 111.934 36.4062C112.521 36.2074 113.023 35.9091 113.441 35.5114C113.858 35.1136 114.177 34.6264 114.395 34.0497L120.272 34.4375C119.973 35.8494 119.362 37.0824 118.437 38.1364C117.522 39.1804 116.339 39.9957 114.888 40.5824C113.446 41.1591 111.78 41.4474 109.891 41.4474ZM126.652 41V18.0909H132.812V22.0881H133.051C133.468 20.6662 134.169 19.5923 135.154 18.8665C136.138 18.1307 137.272 17.7628 138.554 17.7628C138.872 17.7628 139.216 17.7827 139.583 17.8224C139.951 17.8622 140.274 17.9169 140.553 17.9865V23.6243C140.255 23.5348 139.842 23.4553 139.315 23.3857C138.788 23.3161 138.306 23.2812 137.868 23.2812C136.934 23.2812 136.098 23.4851 135.363 23.8928C134.637 24.2905 134.06 24.8473 133.632 25.5632C133.215 26.2791 133.006 27.1044 133.006 28.0391V41H126.652ZM155.312 41.4474C152.955 41.4474 150.927 40.9702 149.227 40.0156C147.536 39.0511 146.234 37.6889 145.319 35.929C144.404 34.1591 143.947 32.0661 143.947 29.6499C143.947 27.2933 144.404 25.2251 145.319 23.4453C146.234 21.6655 147.521 20.2784 149.182 19.2841C150.852 18.2898 152.811 17.7926 155.058 17.7926C156.57 17.7926 157.977 18.0362 159.279 18.5234C160.592 19.0007 161.735 19.7216 162.71 20.6861C163.694 21.6506 164.46 22.8636 165.006 24.3253C165.553 25.777 165.827 27.4773 165.827 29.4261V31.1712H146.482V27.2337H159.846C159.846 26.3189 159.647 25.5085 159.249 24.8026C158.852 24.0966 158.3 23.5447 157.594 23.147C156.898 22.7393 156.087 22.5355 155.163 22.5355C154.198 22.5355 153.343 22.7592 152.597 23.2067C151.862 23.6442 151.285 24.2358 150.867 24.9815C150.45 25.7173 150.236 26.5376 150.226 27.4425V31.1861C150.226 32.3196 150.435 33.299 150.852 34.1243C151.28 34.9496 151.881 35.5859 152.657 36.0334C153.433 36.4808 154.352 36.7045 155.416 36.7045C156.122 36.7045 156.768 36.6051 157.355 36.4062C157.942 36.2074 158.444 35.9091 158.862 35.5114C159.279 35.1136 159.597 34.6264 159.816 34.0497L165.692 34.4375C165.394 35.8494 164.783 37.0824 163.858 38.1364C162.943 39.1804 161.76 39.9957 160.308 40.5824C158.866 41.1591 157.201 41.4474 155.312 41.4474ZM190.426 41.4325C188.965 41.4325 187.662 41.179 186.519 40.6719C185.375 40.1548 184.47 39.3942 183.804 38.3899C183.148 37.3757 182.82 36.1129 182.82 34.6016C182.82 33.3288 183.054 32.2599 183.521 31.3949C183.988 30.5298 184.625 29.8338 185.43 29.3068C186.235 28.7798 187.15 28.3821 188.174 28.1136C189.208 27.8452 190.292 27.6562 191.426 27.5469C192.758 27.4077 193.832 27.2784 194.647 27.1591C195.463 27.0298 196.054 26.8409 196.422 26.5923C196.79 26.3437 196.974 25.9759 196.974 25.4886V25.3991C196.974 24.4545 196.676 23.7237 196.079 23.2067C195.492 22.6896 194.657 22.4311 193.573 22.4311C192.43 22.4311 191.52 22.6847 190.844 23.1918C190.168 23.6889 189.72 24.3153 189.502 25.071L183.625 24.5938C183.924 23.2017 184.51 21.9986 185.385 20.9844C186.26 19.9602 187.389 19.1747 188.771 18.6278C190.163 18.071 191.774 17.7926 193.603 17.7926C194.876 17.7926 196.094 17.9418 197.257 18.2401C198.431 18.5384 199.47 19.0007 200.375 19.6271C201.289 20.2536 202.01 21.0589 202.537 22.0433C203.064 23.0178 203.328 24.1861 203.328 25.5483V41H197.302V37.8232H197.123C196.755 38.5391 196.263 39.1705 195.647 39.7173C195.03 40.2543 194.289 40.6768 193.424 40.9851C192.559 41.2834 191.56 41.4325 190.426 41.4325ZM192.246 37.0476C193.181 37.0476 194.006 36.8636 194.722 36.4957C195.438 36.1179 196 35.6108 196.407 34.9744C196.815 34.3381 197.019 33.6172 197.019 32.8118V30.3807C196.82 30.5099 196.546 30.6293 196.198 30.7386C195.86 30.8381 195.478 30.9325 195.05 31.022C194.622 31.1016 194.195 31.1761 193.767 31.2457C193.34 31.3054 192.952 31.3601 192.604 31.4098C191.858 31.5192 191.207 31.6932 190.65 31.9318C190.093 32.1705 189.661 32.4936 189.353 32.9013C189.044 33.299 188.89 33.7962 188.89 34.3928C188.89 35.2578 189.203 35.919 189.83 36.3764C190.466 36.8239 191.272 37.0476 192.246 37.0476ZM210.476 41V10.4545H216.83V21.9389H217.024C217.302 21.3224 217.705 20.696 218.232 20.0597C218.769 19.4134 219.465 18.8764 220.32 18.4489C221.185 18.0114 222.259 17.7926 223.542 17.7926C225.212 17.7926 226.753 18.2301 228.165 19.1051C229.577 19.9702 230.706 21.2777 231.551 23.0277C232.396 24.7678 232.819 26.9503 232.819 29.5753C232.819 32.1307 232.406 34.2884 231.581 36.0483C230.765 37.7983 229.652 39.1257 228.24 40.0305C226.838 40.9254 225.267 41.3729 223.527 41.3729C222.294 41.3729 221.245 41.169 220.38 40.7614C219.525 40.3537 218.824 39.8416 218.277 39.2251C217.73 38.5987 217.312 37.9673 217.024 37.331H216.741V41H210.476ZM216.696 29.5455C216.696 30.9077 216.885 32.0959 217.263 33.1101C217.64 34.1243 218.187 34.9148 218.903 35.4815C219.619 36.0384 220.489 36.3168 221.513 36.3168C222.547 36.3168 223.422 36.0334 224.138 35.4666C224.854 34.8899 225.396 34.0945 225.764 33.0803C226.142 32.0561 226.331 30.8778 226.331 29.5455C226.331 28.223 226.147 27.0597 225.779 26.0554C225.411 25.0511 224.869 24.2656 224.153 23.6989C223.437 23.1321 222.557 22.8487 221.513 22.8487C220.479 22.8487 219.604 23.1222 218.888 23.669C218.182 24.2159 217.64 24.9915 217.263 25.9957C216.885 27 216.696 28.1832 216.696 29.5455ZM258.219 24.6236L252.402 24.9815C252.303 24.4844 252.089 24.0369 251.761 23.6392C251.433 23.2315 251 22.9084 250.464 22.6697C249.937 22.4212 249.305 22.2969 248.569 22.2969C247.585 22.2969 246.755 22.5057 246.079 22.9233C245.402 23.331 245.064 23.8778 245.064 24.5639C245.064 25.1108 245.283 25.5732 245.721 25.951C246.158 26.3288 246.909 26.6321 247.973 26.8608L252.119 27.696C254.346 28.1534 256.007 28.8892 257.101 29.9034C258.194 30.9176 258.741 32.25 258.741 33.9006C258.741 35.402 258.299 36.7195 257.414 37.853C256.539 38.9865 255.336 39.8714 253.804 40.5078C252.283 41.1342 250.528 41.4474 248.54 41.4474C245.507 41.4474 243.091 40.8161 241.291 39.5533C239.501 38.2805 238.452 36.5504 238.144 34.3629L244.393 34.0348C244.582 34.9595 245.04 35.6655 245.765 36.1527C246.491 36.63 247.421 36.8686 248.554 36.8686C249.668 36.8686 250.563 36.6548 251.239 36.2273C251.925 35.7898 252.273 35.228 252.283 34.5419C252.273 33.9652 252.03 33.4929 251.552 33.125C251.075 32.7472 250.339 32.4588 249.345 32.2599L245.378 31.4695C243.14 31.022 241.475 30.2464 240.381 29.1428C239.297 28.0391 238.755 26.6321 238.755 24.9219C238.755 23.4503 239.153 22.1825 239.949 21.1186C240.754 20.0547 241.883 19.2344 243.334 18.6577C244.796 18.081 246.506 17.7926 248.465 17.7926C251.358 17.7926 253.635 18.4041 255.296 19.6271C256.966 20.8501 257.941 22.5156 258.219 24.6236ZM277.028 18.0909V22.8636H263.231V18.0909H277.028ZM266.363 12.6023H272.717V33.9602C272.717 34.5469 272.807 35.0043 272.986 35.3324C273.165 35.6506 273.413 35.8743 273.731 36.0036C274.059 36.1328 274.437 36.1974 274.865 36.1974C275.163 36.1974 275.461 36.1726 275.76 36.1229C276.058 36.0632 276.287 36.0185 276.446 35.9886L277.445 40.7166C277.127 40.8161 276.68 40.9304 276.103 41.0597C275.526 41.1989 274.825 41.2834 274 41.3132C272.469 41.3729 271.126 41.169 269.973 40.7017C268.829 40.2344 267.939 39.5085 267.303 38.5241C266.667 37.5398 266.354 36.2969 266.363 34.7955V12.6023ZM283.266 41V18.0909H289.426V22.0881H289.665C290.082 20.6662 290.783 19.5923 291.768 18.8665C292.752 18.1307 293.886 17.7628 295.168 17.7628C295.487 17.7628 295.83 17.7827 296.197 17.8224C296.565 17.8622 296.889 17.9169 297.167 17.9865V23.6243C296.869 23.5348 296.456 23.4553 295.929 23.3857C295.402 23.3161 294.92 23.2812 294.482 23.2812C293.548 23.2812 292.712 23.4851 291.977 23.8928C291.251 24.2905 290.674 24.8473 290.246 25.5632C289.829 26.2791 289.62 27.1044 289.62 28.0391V41H283.266ZM308.428 41.4325C306.967 41.4325 305.664 41.179 304.521 40.6719C303.377 40.1548 302.472 39.3942 301.806 38.3899C301.15 37.3757 300.822 36.1129 300.822 34.6016C300.822 33.3288 301.055 32.2599 301.523 31.3949C301.99 30.5298 302.627 29.8338 303.432 29.3068C304.237 28.7798 305.152 28.3821 306.176 28.1136C307.21 27.8452 308.294 27.6562 309.428 27.5469C310.76 27.4077 311.834 27.2784 312.649 27.1591C313.465 27.0298 314.056 26.8409 314.424 26.5923C314.792 26.3437 314.976 25.9759 314.976 25.4886V25.3991C314.976 24.4545 314.678 23.7237 314.081 23.2067C313.494 22.6896 312.659 22.4311 311.575 22.4311C310.432 22.4311 309.522 22.6847 308.846 23.1918C308.17 23.6889 307.722 24.3153 307.504 25.071L301.627 24.5938C301.926 23.2017 302.512 21.9986 303.387 20.9844C304.262 19.9602 305.391 19.1747 306.773 18.6278C308.165 18.071 309.776 17.7926 311.605 17.7926C312.878 17.7926 314.096 17.9418 315.259 18.2401C316.433 18.5384 317.472 19.0007 318.377 19.6271C319.291 20.2536 320.012 21.0589 320.539 22.0433C321.066 23.0178 321.33 24.1861 321.33 25.5483V41H315.304V37.8232H315.125C314.757 38.5391 314.265 39.1705 313.649 39.7173C313.032 40.2543 312.291 40.6768 311.426 40.9851C310.561 41.2834 309.562 41.4325 308.428 41.4325ZM310.248 37.0476C311.183 37.0476 312.008 36.8636 312.724 36.4957C313.44 36.1179 314.002 35.6108 314.409 34.9744C314.817 34.3381 315.021 33.6172 315.021 32.8118V30.3807C314.822 30.5099 314.548 30.6293 314.2 30.7386C313.862 30.8381 313.479 30.9325 313.052 31.022C312.624 31.1016 312.197 31.1761 311.769 31.2457C311.342 31.3054 310.954 31.3601 310.606 31.4098C309.86 31.5192 309.209 31.6932 308.652 31.9318C308.095 32.1705 307.663 32.4936 307.354 32.9013C307.046 33.299 306.892 33.7962 306.892 34.3928C306.892 35.2578 307.205 35.919 307.832 36.3764C308.468 36.8239 309.274 37.0476 310.248 37.0476ZM334.116 34.4077L334.131 26.7862H335.056L342.394 18.0909H349.687L339.828 29.6051H338.322L334.116 34.4077ZM328.359 41V10.4545H334.713V41H328.359ZM342.677 41L335.936 31.022L340.171 26.5327L350.12 41H342.677ZM367.09 18.0909V22.8636H353.293V18.0909H367.09ZM356.426 12.6023H362.779V33.9602C362.779 34.5469 362.869 35.0043 363.048 35.3324C363.227 35.6506 363.475 35.8743 363.793 36.0036C364.122 36.1328 364.499 36.1974 364.927 36.1974C365.225 36.1974 365.524 36.1726 365.822 36.1229C366.12 36.0632 366.349 36.0185 366.508 35.9886L367.507 40.7166C367.189 40.8161 366.742 40.9304 366.165 41.0597C365.588 41.1989 364.887 41.2834 364.062 41.3132C362.531 41.3729 361.188 41.169 360.035 40.7017C358.891 40.2344 358.002 39.5085 357.365 38.5241C356.729 37.5398 356.416 36.2969 356.426 34.7955V12.6023ZM383.523 41.4474C381.166 41.4474 379.138 40.9702 377.438 40.0156C375.747 39.0511 374.445 37.6889 373.53 35.929C372.615 34.1591 372.158 32.0661 372.158 29.6499C372.158 27.2933 372.615 25.2251 373.53 23.4453C374.445 21.6655 375.732 20.2784 377.393 19.2841C379.063 18.2898 381.022 17.7926 383.269 17.7926C384.781 17.7926 386.188 18.0362 387.49 18.5234C388.803 19.0007 389.946 19.7216 390.92 20.6861C391.905 21.6506 392.67 22.8636 393.217 24.3253C393.764 25.777 394.038 27.4773 394.038 29.4261V31.1712H374.693V27.2337H388.057C388.057 26.3189 387.858 25.5085 387.46 24.8026C387.063 24.0966 386.511 23.5447 385.805 23.147C385.109 22.7393 384.298 22.5355 383.374 22.5355C382.409 22.5355 381.554 22.7592 380.808 23.2067C380.072 23.6442 379.496 24.2358 379.078 24.9815C378.661 25.7173 378.447 26.5376 378.437 27.4425V31.1861C378.437 32.3196 378.646 33.299 379.063 34.1243C379.491 34.9496 380.092 35.5859 380.868 36.0334C381.643 36.4808 382.563 36.7045 383.627 36.7045C384.333 36.7045 384.979 36.6051 385.566 36.4062C386.153 36.2074 386.655 35.9091 387.072 35.5114C387.49 35.1136 387.808 34.6264 388.027 34.0497L393.903 34.4375C393.605 35.8494 392.994 37.0824 392.069 38.1364C391.154 39.1804 389.971 39.9957 388.519 40.5824C387.077 41.1591 385.412 41.4474 383.523 41.4474ZM431.091 10.4545H437.549V30.2912C437.549 32.5185 437.017 34.4673 435.953 36.1378C434.899 37.8082 433.423 39.1108 431.524 40.0455C429.625 40.9702 427.412 41.4325 424.887 41.4325C422.351 41.4325 420.134 40.9702 418.235 40.0455C416.335 39.1108 414.859 37.8082 413.805 36.1378C412.751 34.4673 412.224 32.5185 412.224 30.2912V10.4545H418.682V29.7393C418.682 30.9027 418.936 31.9368 419.443 32.8416C419.96 33.7464 420.686 34.4574 421.62 34.9744C422.555 35.4915 423.644 35.75 424.887 35.75C426.139 35.75 427.228 35.4915 428.153 34.9744C429.088 34.4574 429.808 33.7464 430.316 32.8416C430.833 31.9368 431.091 30.9027 431.091 29.7393V10.4545ZM444.843 41V18.0909H450.899V22.1328H451.167C451.644 20.7905 452.44 19.7315 453.554 18.956C454.667 18.1804 456 17.7926 457.551 17.7926C459.122 17.7926 460.459 18.1854 461.563 18.9709C462.666 19.7464 463.402 20.8004 463.77 22.1328H464.009C464.476 20.8203 465.321 19.7713 466.544 18.9858C467.777 18.1903 469.234 17.7926 470.914 17.7926C473.052 17.7926 474.787 18.4737 476.12 19.8359C477.462 21.1882 478.133 23.1072 478.133 25.593V41H471.794V26.8459C471.794 25.5732 471.456 24.6186 470.78 23.9822C470.104 23.3459 469.259 23.0277 468.245 23.0277C467.091 23.0277 466.191 23.3956 465.545 24.1314C464.899 24.8572 464.576 25.8168 464.576 27.0099V41H458.416V26.7116C458.416 25.5881 458.093 24.6932 457.446 24.027C456.81 23.3608 455.97 23.0277 454.926 23.0277C454.22 23.0277 453.583 23.2067 453.017 23.5646C452.46 23.9126 452.017 24.4048 451.689 25.0412C451.361 25.6676 451.197 26.4034 451.197 27.2486V41H444.843ZM495.573 50.0682C493.515 50.0682 491.75 49.7848 490.278 49.218C488.817 48.6612 487.653 47.9006 486.788 46.9361C485.923 45.9716 485.361 44.8878 485.103 43.6847L490.979 42.8942C491.158 43.3516 491.442 43.7791 491.829 44.1768C492.217 44.5746 492.729 44.8928 493.366 45.1314C494.012 45.38 494.797 45.5043 495.722 45.5043C497.104 45.5043 498.243 45.1662 499.138 44.4901C500.042 43.8239 500.495 42.7053 500.495 41.1342V36.9432H500.226C499.948 37.5795 499.53 38.1811 498.974 38.7479C498.417 39.3146 497.701 39.777 496.826 40.1349C495.951 40.4929 494.907 40.6719 493.694 40.6719C491.974 40.6719 490.407 40.2741 488.996 39.4787C487.594 38.6733 486.475 37.4453 485.64 35.7947C484.814 34.1342 484.402 32.0362 484.402 29.5007C484.402 26.9055 484.824 24.7379 485.67 22.9979C486.515 21.2578 487.638 19.9553 489.04 19.0902C490.452 18.2251 491.998 17.7926 493.679 17.7926C494.961 17.7926 496.035 18.0114 496.9 18.4489C497.765 18.8764 498.461 19.4134 498.988 20.0597C499.525 20.696 499.938 21.3224 500.226 21.9389H500.465V18.0909H506.774V41.2237C506.774 43.1726 506.297 44.8033 505.342 46.1158C504.388 47.4283 503.065 48.4126 501.375 49.0689C499.694 49.7351 497.76 50.0682 495.573 50.0682ZM495.707 35.8991C496.731 35.8991 497.596 35.6456 498.302 35.1385C499.018 34.6214 499.565 33.8857 499.943 32.9311C500.331 31.9666 500.525 30.8132 500.525 29.4709C500.525 28.1286 500.336 26.9652 499.958 25.9808C499.58 24.9865 499.033 24.2159 498.317 23.669C497.601 23.1222 496.731 22.8487 495.707 22.8487C494.663 22.8487 493.783 23.1321 493.067 23.6989C492.351 24.2557 491.809 25.0312 491.442 26.0256C491.074 27.0199 490.89 28.1683 490.89 29.4709C490.89 30.7933 491.074 31.9368 491.442 32.9013C491.819 33.8558 492.361 34.5966 493.067 35.1236C493.783 35.6406 494.663 35.8991 495.707 35.8991ZM524.37 41.4474C522.014 41.4474 519.985 40.9702 518.285 40.0156C516.595 39.0511 515.292 37.6889 514.377 35.929C513.463 34.1591 513.005 32.0661 513.005 29.6499C513.005 27.2933 513.463 25.2251 514.377 23.4453C515.292 21.6655 516.58 20.2784 518.24 19.2841C519.911 18.2898 521.87 17.7926 524.117 17.7926C525.628 17.7926 527.035 18.0362 528.338 18.5234C529.65 19.0007 530.794 19.7216 531.768 20.6861C532.752 21.6506 533.518 22.8636 534.065 24.3253C534.612 25.777 534.885 27.4773 534.885 29.4261V31.1712H515.541V27.2337H528.904C528.904 26.3189 528.706 25.5085 528.308 24.8026C527.91 24.0966 527.358 23.5447 526.652 23.147C525.956 22.7393 525.146 22.5355 524.221 22.5355C523.257 22.5355 522.402 22.7592 521.656 23.2067C520.92 23.6442 520.343 24.2358 519.926 24.9815C519.508 25.7173 519.294 26.5376 519.284 27.4425V31.1861C519.284 32.3196 519.493 33.299 519.911 34.1243C520.338 34.9496 520.94 35.5859 521.716 36.0334C522.491 36.4808 523.411 36.7045 524.475 36.7045C525.181 36.7045 525.827 36.6051 526.414 36.4062C527 36.2074 527.502 35.9091 527.92 35.5114C528.338 35.1136 528.656 34.6264 528.875 34.0497L534.751 34.4375C534.453 35.8494 533.841 37.0824 532.917 38.1364C532.002 39.1804 530.819 39.9957 529.367 40.5824C527.925 41.1591 526.26 41.4474 524.37 41.4474ZM541.251 41V10.4545H547.605V21.9389H547.798C548.077 21.3224 548.48 20.696 549.007 20.0597C549.544 19.4134 550.24 18.8764 551.095 18.4489C551.96 18.0114 553.034 17.7926 554.316 17.7926C555.987 17.7926 557.528 18.2301 558.94 19.1051C560.352 19.9702 561.48 21.2777 562.325 23.0277C563.171 24.7678 563.593 26.9503 563.593 29.5753C563.593 32.1307 563.181 34.2884 562.355 36.0483C561.54 37.7983 560.426 39.1257 559.014 40.0305C557.612 40.9254 556.041 41.3729 554.301 41.3729C553.068 41.3729 552.019 41.169 551.154 40.7614C550.299 40.3537 549.598 39.8416 549.051 39.2251C548.504 38.5987 548.087 37.9673 547.798 37.331H547.515V41H541.251ZM547.47 29.5455C547.47 30.9077 547.659 32.0959 548.037 33.1101C548.415 34.1243 548.962 34.9148 549.678 35.4815C550.394 36.0384 551.264 36.3168 552.288 36.3168C553.322 36.3168 554.197 36.0334 554.913 35.4666C555.629 34.8899 556.171 34.0945 556.539 33.0803C556.916 32.0561 557.105 30.8778 557.105 29.5455C557.105 28.223 556.921 27.0597 556.553 26.0554C556.186 25.0511 555.644 24.2656 554.928 23.6989C554.212 23.1321 553.332 22.8487 552.288 22.8487C551.254 22.8487 550.379 23.1222 549.663 23.669C548.957 24.2159 548.415 24.9915 548.037 25.9957C547.659 27 547.47 28.1832 547.47 29.5455ZM584.624 31.2457V18.0909H590.978V41H584.877V36.8388H584.639C584.122 38.1811 583.262 39.2599 582.058 40.0753C580.865 40.8906 579.409 41.2983 577.688 41.2983C576.157 41.2983 574.81 40.9503 573.647 40.2543C572.483 39.5582 571.573 38.5689 570.917 37.2862C570.271 36.0036 569.943 34.4673 569.933 32.6776V18.0909H576.286V31.544C576.296 32.8963 576.659 33.9652 577.375 34.7507C578.091 35.5362 579.051 35.929 580.254 35.929C581.019 35.929 581.735 35.755 582.402 35.407C583.068 35.049 583.605 34.522 584.012 33.826C584.43 33.13 584.634 32.2699 584.624 31.2457ZM604.513 27.7557V41H598.16V18.0909H604.215V22.1328H604.484C604.991 20.8004 605.841 19.7464 607.034 18.9709C608.227 18.1854 609.674 17.7926 611.374 17.7926C612.965 17.7926 614.352 18.1406 615.535 18.8366C616.719 19.5327 617.638 20.527 618.295 21.8196C618.951 23.1023 619.279 24.6335 619.279 26.4134V41H612.925V27.5469C612.935 26.1449 612.577 25.0511 611.851 24.2656C611.126 23.4702 610.126 23.0724 608.854 23.0724C607.998 23.0724 607.243 23.2564 606.587 23.6243C605.94 23.9922 605.433 24.5291 605.065 25.2351C604.707 25.9311 604.523 26.7713 604.513 27.7557ZM636.708 50.0682C634.649 50.0682 632.885 49.7848 631.413 49.218C629.951 48.6612 628.788 47.9006 627.923 46.9361C627.058 45.9716 626.496 44.8878 626.238 43.6847L632.114 42.8942C632.293 43.3516 632.576 43.7791 632.964 44.1768C633.352 44.5746 633.864 44.8928 634.5 45.1314C635.147 45.38 635.932 45.5043 636.857 45.5043C638.239 45.5043 639.377 45.1662 640.272 44.4901C641.177 43.8239 641.63 42.7053 641.63 41.1342V36.9432H641.361C641.083 37.5795 640.665 38.1811 640.108 38.7479C639.551 39.3146 638.836 39.777 637.961 40.1349C637.086 40.4929 636.042 40.6719 634.828 40.6719C633.108 40.6719 631.542 40.2741 630.13 39.4787C628.728 38.6733 627.61 37.4453 626.774 35.7947C625.949 34.1342 625.537 32.0362 625.537 29.5007C625.537 26.9055 625.959 24.7379 626.804 22.9979C627.649 21.2578 628.773 19.9553 630.175 19.0902C631.587 18.2251 633.133 17.7926 634.814 17.7926C636.096 17.7926 637.17 18.0114 638.035 18.4489C638.9 18.8764 639.596 19.4134 640.123 20.0597C640.66 20.696 641.073 21.3224 641.361 21.9389H641.6V18.0909H647.909V41.2237C647.909 43.1726 647.431 44.8033 646.477 46.1158C645.522 47.4283 644.2 48.4126 642.51 49.0689C640.829 49.7351 638.895 50.0682 636.708 50.0682ZM636.842 35.8991C637.866 35.8991 638.731 35.6456 639.437 35.1385C640.153 34.6214 640.7 33.8857 641.078 32.9311C641.466 31.9666 641.659 30.8132 641.659 29.4709C641.659 28.1286 641.471 26.9652 641.093 25.9808C640.715 24.9865 640.168 24.2159 639.452 23.669C638.736 23.1222 637.866 22.8487 636.842 22.8487C635.798 22.8487 634.918 23.1321 634.202 23.6989C633.486 24.2557 632.944 25.0312 632.576 26.0256C632.208 27.0199 632.024 28.1683 632.024 29.4709C632.024 30.7933 632.208 31.9368 632.576 32.9013C632.954 33.8558 633.496 34.5966 634.202 35.1236C634.918 35.6406 635.798 35.8991 636.842 35.8991Z" fill="black"/>
</svg>
