<svg width="275" height="56" viewBox="0 0 275 56" fill="none" xmlns="http://www.w3.org/2000/svg">
<rect y="33" width="275" height="23" fill="#809971"/>
<path d="M23.7486 41H12.9205V10.4545H23.8381C26.9105 10.4545 29.5554 11.0661 31.7727 12.2891C33.9901 13.5021 35.6953 15.2472 36.8885 17.5241C38.0916 19.8011 38.6932 22.5256 38.6932 25.6974C38.6932 28.8793 38.0916 31.6136 36.8885 33.9006C35.6953 36.1875 33.9801 37.9425 31.7429 39.1655C29.5156 40.3885 26.8509 41 23.7486 41ZM19.3786 35.4666H23.4801C25.3892 35.4666 26.995 35.1286 28.2976 34.4524C29.6101 33.7663 30.5945 32.7074 31.2507 31.2756C31.9169 29.8338 32.25 27.9744 32.25 25.6974C32.25 23.4403 31.9169 21.5959 31.2507 20.1641C30.5945 18.7322 29.6151 17.6783 28.3125 17.0021C27.0099 16.326 25.4041 15.9879 23.495 15.9879H19.3786V35.4666ZM51.9904 41.4325C50.5288 41.4325 49.2262 41.179 48.0828 40.6719C46.9393 40.1548 46.0345 39.3942 45.3683 38.3899C44.712 37.3757 44.3839 36.1129 44.3839 34.6016C44.3839 33.3288 44.6176 32.2599 45.0849 31.3949C45.5522 30.5298 46.1886 29.8338 46.994 29.3068C47.7994 28.7798 48.7142 28.3821 49.7383 28.1136C50.7724 27.8452 51.8562 27.6562 52.9897 27.5469C54.3221 27.4077 55.396 27.2784 56.2113 27.1591C57.0267 27.0298 57.6183 26.8409 57.9862 26.5923C58.3541 26.3437 58.538 25.9759 58.538 25.4886V25.3991C58.538 24.4545 58.2397 23.7237 57.6431 23.2067C57.0565 22.6896 56.2213 22.4311 55.1375 22.4311C53.994 22.4311 53.0842 22.6847 52.4081 23.1918C51.7319 23.6889 51.2845 24.3153 51.0657 25.071L45.1893 24.5938C45.4876 23.2017 46.0743 21.9986 46.9493 20.9844C47.8243 19.9602 48.9528 19.1747 50.3349 18.6278C51.727 18.071 53.3377 17.7926 55.1673 17.7926C56.44 17.7926 57.6581 17.9418 58.8214 18.2401C59.9947 18.5384 61.0338 19.0007 61.9386 19.6271C62.8534 20.2536 63.5743 21.0589 64.1012 22.0433C64.6282 23.0178 64.8917 24.1861 64.8917 25.5483V41H58.8662V37.8232H58.6872C58.3193 38.5391 57.8271 39.1705 57.2106 39.7173C56.5941 40.2543 55.8534 40.6768 54.9883 40.9851C54.1233 41.2834 53.124 41.4325 51.9904 41.4325ZM53.81 37.0476C54.7447 37.0476 55.57 36.8636 56.2859 36.4957C57.0018 36.1179 57.5636 35.6108 57.9713 34.9744C58.3789 34.3381 58.5828 33.6172 58.5828 32.8118V30.3807C58.3839 30.5099 58.1105 30.6293 57.7625 30.7386C57.4244 30.8381 57.0416 30.9325 56.614 31.022C56.1865 31.1016 55.7589 31.1761 55.3314 31.2457C54.9038 31.3054 54.516 31.3601 54.168 31.4098C53.4223 31.5192 52.771 31.6932 52.2142 31.9318C51.6573 32.1705 51.2248 32.4936 50.9166 32.9013C50.6083 33.299 50.4542 33.7962 50.4542 34.3928C50.4542 35.2578 50.7674 35.919 51.3939 36.3764C52.0302 36.8239 52.8356 37.0476 53.81 37.0476ZM90.9821 24.6236L85.1654 24.9815C85.0659 24.4844 84.8522 24.0369 84.524 23.6392C84.1959 23.2315 83.7634 22.9084 83.2265 22.6697C82.6995 22.4212 82.0681 22.2969 81.3323 22.2969C80.3479 22.2969 79.5177 22.5057 78.8415 22.9233C78.1654 23.331 77.8273 23.8778 77.8273 24.5639C77.8273 25.1108 78.0461 25.5732 78.4836 25.951C78.9211 26.3288 79.6718 26.6321 80.7357 26.8608L84.882 27.696C87.1093 28.1534 88.7698 28.8892 89.8635 29.9034C90.9573 30.9176 91.5042 32.25 91.5042 33.9006C91.5042 35.402 91.0617 36.7195 90.1767 37.853C89.3017 38.9865 88.0986 39.8714 86.5674 40.5078C85.0461 41.1342 83.2911 41.4474 81.3025 41.4474C78.2698 41.4474 75.8536 40.8161 74.0539 39.5533C72.2641 38.2805 71.2151 36.5504 70.9069 34.3629L77.1561 34.0348C77.3451 34.9595 77.8025 35.6655 78.5283 36.1527C79.2542 36.63 80.1838 36.8686 81.3174 36.8686C82.431 36.8686 83.3259 36.6548 84.002 36.2273C84.6881 35.7898 85.0361 35.228 85.0461 34.5419C85.0361 33.9652 84.7925 33.4929 84.3152 33.125C83.838 32.7472 83.1022 32.4588 82.1078 32.2599L78.1405 31.4695C75.9033 31.022 74.2378 30.2464 73.1441 29.1428C72.0603 28.0391 71.5184 26.6321 71.5184 24.9219C71.5184 23.4503 71.9161 22.1825 72.7115 21.1186C73.5169 20.0547 74.6455 19.2344 76.0972 18.6577C77.5588 18.081 79.2691 17.7926 81.2279 17.7926C84.1213 17.7926 86.3983 18.4041 88.0588 19.6271C89.7293 20.8501 90.7037 22.5156 90.9821 24.6236ZM109.545 41V10.4545H121.596C123.913 10.4545 125.887 10.897 127.517 11.782C129.148 12.657 130.391 13.875 131.246 15.4361C132.111 16.9872 132.544 18.777 132.544 20.8054C132.544 22.8338 132.106 24.6236 131.231 26.1747C130.356 27.7259 129.088 28.9339 127.428 29.799C125.777 30.6641 123.779 31.0966 121.432 31.0966H113.751V25.9212H120.388C121.631 25.9212 122.655 25.7074 123.461 25.2798C124.276 24.8423 124.882 24.2408 125.28 23.4751C125.688 22.6996 125.892 21.8097 125.892 20.8054C125.892 19.7912 125.688 18.9062 125.28 18.1506C124.882 17.3849 124.276 16.7933 123.461 16.3757C122.645 15.9482 121.611 15.7344 120.358 15.7344H116.003V41H109.545ZM138.719 41V18.0909H144.879V22.0881H145.118C145.535 20.6662 146.236 19.5923 147.221 18.8665C148.205 18.1307 149.338 17.7628 150.621 17.7628C150.939 17.7628 151.282 17.7827 151.65 17.8224C152.018 17.8622 152.341 17.9169 152.62 17.9865V23.6243C152.321 23.5348 151.909 23.4553 151.382 23.3857C150.855 23.3161 150.373 23.2812 149.935 23.2812C149 23.2812 148.165 23.4851 147.429 23.8928C146.703 24.2905 146.127 24.8473 145.699 25.5632C145.282 26.2791 145.073 27.1044 145.073 28.0391V41H138.719ZM158.005 41V18.0909H164.358V41H158.005ZM161.196 15.1378C160.252 15.1378 159.441 14.8246 158.765 14.1982C158.099 13.5618 157.766 12.8011 157.766 11.9162C157.766 11.0412 158.099 10.2905 158.765 9.66406C159.441 9.0277 160.252 8.70952 161.196 8.70952C162.141 8.70952 162.946 9.0277 163.613 9.66406C164.289 10.2905 164.627 11.0412 164.627 11.9162C164.627 12.8011 164.289 13.5618 163.613 14.1982C162.946 14.8246 162.141 15.1378 161.196 15.1378ZM177.902 27.7557V41H171.548V18.0909H177.603V22.1328H177.872C178.379 20.8004 179.229 19.7464 180.422 18.9709C181.615 18.1854 183.062 17.7926 184.762 17.7926C186.353 17.7926 187.74 18.1406 188.924 18.8366C190.107 19.5327 191.027 20.527 191.683 21.8196C192.339 23.1023 192.667 24.6335 192.667 26.4134V41H186.314V27.5469C186.324 26.1449 185.966 25.0511 185.24 24.2656C184.514 23.4702 183.515 23.0724 182.242 23.0724C181.387 23.0724 180.631 23.2564 179.975 23.6243C179.329 23.9922 178.821 24.5291 178.454 25.2351C178.096 25.9311 177.912 26.7713 177.902 27.7557ZM199.656 41V37.2116L210.872 23.326V23.1619H200.043V18.0909H218.523V22.2223L207.993 35.7649V35.929H218.911V41H199.656ZM225.869 41V18.0909H232.223V41H225.869ZM229.061 15.1378C228.116 15.1378 227.306 14.8246 226.63 14.1982C225.964 13.5618 225.63 12.8011 225.63 11.9162C225.63 11.0412 225.964 10.2905 226.63 9.66406C227.306 9.0277 228.116 8.70952 229.061 8.70952C230.005 8.70952 230.811 9.0277 231.477 9.66406C232.153 10.2905 232.491 11.0412 232.491 11.9162C232.491 12.8011 232.153 13.5618 231.477 14.1982C230.811 14.8246 230.005 15.1378 229.061 15.1378ZM239.412 49.5909V18.0909H245.677V21.9389H245.96C246.238 21.3224 246.641 20.696 247.168 20.0597C247.705 19.4134 248.401 18.8764 249.256 18.4489C250.121 18.0114 251.195 17.7926 252.478 17.7926C254.148 17.7926 255.689 18.2301 257.101 19.1051C258.513 19.9702 259.642 21.2777 260.487 23.0277C261.332 24.7678 261.755 26.9503 261.755 29.5753C261.755 32.1307 261.342 34.2884 260.517 36.0483C259.702 37.7983 258.588 39.1257 257.176 40.0305C255.774 40.9254 254.203 41.3729 252.463 41.3729C251.23 41.3729 250.181 41.169 249.316 40.7614C248.461 40.3537 247.76 39.8416 247.213 39.2251C246.666 38.5987 246.248 37.9673 245.96 37.331H245.766V49.5909H239.412ZM245.632 29.5455C245.632 30.9077 245.821 32.0959 246.199 33.1101C246.577 34.1243 247.123 34.9148 247.839 35.4815C248.555 36.0384 249.425 36.3168 250.449 36.3168C251.483 36.3168 252.358 36.0334 253.074 35.4666C253.79 34.8899 254.332 34.0945 254.7 33.0803C255.078 32.0561 255.267 30.8778 255.267 29.5455C255.267 28.223 255.083 27.0597 254.715 26.0554C254.347 25.0511 253.805 24.2656 253.089 23.6989C252.373 23.1321 251.493 22.8487 250.449 22.8487C249.415 22.8487 248.54 23.1222 247.824 23.669C247.118 24.2159 246.577 24.9915 246.199 25.9957C245.821 27 245.632 28.1832 245.632 29.5455Z" fill="black"/>
</svg>
